<svg xmlns="http://www.w3.org/2000/svg" viewBox="0 0 453.47 103.1"><defs><radialGradient id="a" cx="28.3" cy="-13.2" r="112.11" gradientUnits="userSpaceOnUse"><stop offset=".03" stop-color="#89f7fe"/><stop offset=".66" stop-color="#72c2ff"/><stop offset=".99" stop-color="#66a6ff"/></radialGradient></defs><path d="M135.57 41.17v11.64H151v3.64h-15.43v14.2h-3.79V37.53h21.06v3.64zM185.49 57c0 8.61-5.2 13.82-13.86 13.82s-14-5.21-14-13.82V37.53h3.79V57c0 6.43 3.88 10.17 10.17 10.17s10.12-3.71 10.12-10.17V37.53h3.79zm19.36-15.83v29.48h-3.79V41.17h-10.79v-3.64h25.41v3.64zM248.24 57c0 8.61-5.21 13.82-13.86 13.82s-14-5.21-14-13.82V37.53h3.79V57c0 6.43 3.88 10.17 10.17 10.17s10.11-3.71 10.11-10.17V37.53h3.79zm24.09 3.1c-.71 0-1.47.09-2.22.09h-8.8v10.46h-3.79V37.53h12.58c8.28 0 13.06 4.07 13.06 11.12 0 5.49-2.65 9.18-7.43 10.74l7.76 11.26h-4.31zm-2.22-3.55c6 0 9.42-2.65 9.42-7.81s-3.41-7.57-9.42-7.57h-8.8v15.38zm25.4-15.38v10.88h16.7v3.65h-16.7v11.35h19.31v3.6h-23.09V37.53h22.47v3.64zm50.78 29.48V56.08h-20v14.57h-3.79V37.53h3.79v15h20v-15h3.79v33.12zM363 62.27l-3.69 8.37h-4l14.86-33.12h3.93l14.81 33.12h-4.12l-3.69-8.37zm9-20.44l-7.38 16.8h14.86zm47.54.43l-2.27 2.89a13.92 13.92 0 0 0-9.79-4.15 13.07 13.07 0 1 0 0 26.12 14.45 14.45 0 0 0 9.79-4l2.32 2.6a18.29 18.29 0 0 1-12.3 5.11A16.85 16.85 0 0 1 390.16 54c0-9.27 7.67-16.61 17.27-16.61a17.91 17.91 0 0 1 12.11 4.87zm17.09 12.68l-6.44 7v8.66h-3.79V37.53h3.79V56.6L448 37.53h4.5l-13.13 14.38 14.1 18.74h-4.64z" fill="#66a6ff"/><path d="M51.55 0a51.55 51.55 0 1 0 51.55 51.55A51.55 51.55 0 0 0 51.55 0zM13.93 54.62c-2 0-3.65-4.49-3.65-10s1.63-10 3.65-10 3.65 4.49 3.65 10-1.63 10-3.65 10zm22.29 3.9c-2.8 0-5.07-6.24-5.07-13.93s2.27-13.93 5.07-13.93 5.07 6.24 5.07 13.93S39 58.52 36.23 58.52z" fill="url(#a)"/></svg>