<svg xmlns="http://www.w3.org/2000/svg" viewBox="0 0 637.52 199.06"><defs><style>.cls-1{fill:#0f0f0f}.cls-3{fill:#46cc66}.cls-4{fill:#4ca4e0}.cls-5{fill:#dbcc46}.cls-6{fill:#fff}.cls-7{fill:#3498db}.cls-8{fill:#f9b32f}.cls-9{fill:#1ebc61}.cls-10{fill:#ffc29b}.cls-12{fill:#303030}.cls-14,.cls-16{fill:none;stroke:#fff;stroke-miterlimit:10}.cls-14{stroke-width:.36px}.cls-16{stroke-width:.72px}.cls-17{fill:#ca2c68}.cls-21{fill:#ffb28b}.cls-22{fill:#a3320b}.cls-25{fill:#f75c4c}.cls-28{fill:#9a0038}</style></defs><rect class="cls-1" x="50.6" y="2" width="250.32" height="156.3" rx="8.02" ry="8.02"/><rect x="54.44" y="5.67" width="242.64" height="148.96" rx="6.13" ry="6.13" fill="#474747"/><rect class="cls-3" x="73.63" y="28.7" width="190.42" height="6.14" rx="3.07" ry="3.07"/><rect class="cls-3" x="73.63" y="78.61" width="144.35" height="6.14" rx="3.07" ry="3.07"/><rect class="cls-4" x="73.63" y="45.34" width="73.71" height="6.14" rx="3.07" ry="3.07"/><rect class="cls-5" x="73.63" y="61.98" width="116.71" height="6.14" rx="3.07" ry="3.07"/><rect class="cls-5" x="73.63" y="111.89" width="75.25" height="6.14" rx="3.07" ry="3.07"/><rect class="cls-5" x="73.63" y="128.52" width="95.21" height="6.14" rx="3.07" ry="3.07"/><rect class="cls-4" x="73.63" y="95.25" width="67.57" height="6.14" rx="3.07" ry="3.07"/><rect class="cls-1" x="342.6" width="250.32" height="156.3" rx="8.02" ry="8.02"/><rect class="cls-6" x="346.44" y="3.67" width="242.64" height="148.96" rx="6.13" ry="6.13"/><path class="cls-7" d="M514 97a1.38 1.38 0 0 1 .54.43.87.87 0 0 1 .18.53.84.84 0 0 1-.2.51 1.18 1.18 0 0 1-.6.36 1.76 1.76 0 0 1-.43.05h-4.44a.73.73 0 0 1-.51-.2.9.9 0 0 1-.27-.47 3.38 3.38 0 0 1-.11-.67v-.7-.58-1.07-1.23-2.25-1.32a5.41 5.41 0 0 1 .07-.79.83.83 0 0 1 .18-.42 1 1 0 0 1 .34-.22.83.83 0 0 1 .41-.05 1.15 1.15 0 0 1 .42.12.94.94 0 0 1 .32.28.65.65 0 0 1 .13.39v3.68q0 1.82-.03 3.62h1.94l2-.05zM521.33 96.57a1 1 0 0 1 .49.15 1.19 1.19 0 0 1 .34.32.86.86 0 0 1 .15.43.92.92 0 0 1-.29.74.63.63 0 0 1-.27.18 9.25 9.25 0 0 1-2 .36 11.93 11.93 0 0 1-2.07 0l-.64-.06a1.31 1.31 0 0 1-.61-.2 1 1 0 0 1-.48-.88V91a1 1 0 0 1-.28-.31 1 1 0 0 1-.13-.39.82.82 0 0 1 .05-.4.78.78 0 0 1 .26-.33 1.67 1.67 0 0 1 .71-.33l.79-.15a10.62 10.62 0 0 1 1.61-.12h1.64a5 5 0 0 0 .57 0 1.22 1.22 0 0 1 .57.05 1 1 0 0 1 .46.34 1 1 0 0 1 .2.5.86.86 0 0 1-.1.51.89.89 0 0 1-.46.39 2 2 0 0 1-.83.14h-2.02a11.33 11.33 0 0 0-1.18.09V93a10.08 10.08 0 0 0 1.11 0h1.58a2.13 2.13 0 0 1 .51 0 .78.78 0 0 1 .53.28 1 1 0 0 1 .22.52 1 1 0 0 1-.1.56.82.82 0 0 1-.45.4 2.77 2.77 0 0 1-.71.16c-.3 0-.61.06-.94.08h-1.8v1.9a7.94 7.94 0 0 0 1.72 0 10.5 10.5 0 0 0 1.7-.29zM531.87 98a1.19 1.19 0 0 1-.23.58 1 1 0 0 1-.43.33.81.81 0 0 1-.51 0 1.1 1.1 0 0 1-.73-.91 4.64 4.64 0 0 0-.08-.59 13.25 13.25 0 0 0-.45-1.75h-3.79q-.14.4-.24.82l-.19.82q-.08.31-.14.64a1.19 1.19 0 0 1-.28.58.9.9 0 0 1-.56.35.84.84 0 0 1-.54-.1 1 1 0 0 1-.39-.42 1.12 1.12 0 0 1-.1-.66 5 5 0 0 1 .19-.94q.14-.46.26-.93a34.12 34.12 0 0 1 1.79-5.15c.06-.14.13-.28.19-.42l.19-.4q.11-.22.22-.46a2.65 2.65 0 0 1 .25-.46 1.55 1.55 0 0 1 .35-.36.82.82 0 0 1 .5-.15.91.91 0 0 1 .65.25 9.47 9.47 0 0 1 1.73 2.38 29.46 29.46 0 0 1 1.22 2.7 6.24 6.24 0 0 1 .63 0 .81.81 0 0 1 .56.28.84.84 0 0 1 .26.46 1 1 0 0 1 0 .48 1 1 0 0 1-.28.4 1 1 0 0 1-.47.23q.15.54.27 1.11t.19 1.14zm-3.16-4.21q-.29-.7-.63-1.38a10.46 10.46 0 0 0-.75-1.31q-.31.68-.58 1.35t-.5 1.37h1.28zM535 98.1a1 1 0 0 1-.33.63 1.31 1.31 0 0 1-.6.32.86.86 0 0 1-.6-.07.59.59 0 0 1-.29-.56q-.08-1.78-.08-3.69v-3.8a.75.75 0 0 1-.37-.28.9.9 0 0 1-.15-.41 1.08 1.08 0 0 1 .05-.46 1.11 1.11 0 0 1 .23-.4 1.69 1.69 0 0 1 .46-.34 5.94 5.94 0 0 1 .64-.29c.23-.09.46-.16.69-.22l.57-.14a4.76 4.76 0 0 1 2 0 4.52 4.52 0 0 1 1.74.75 3.32 3.32 0 0 1 1.12 1.41 3 3 0 0 1 .08 2 5 5 0 0 1-.23.62 3.5 3.5 0 0 1-.32.57 3.43 3.43 0 0 1-.62.71 6.34 6.34 0 0 1-.77.57 8.23 8.23 0 0 1 .56.65 4.25 4.25 0 0 0 .59.62l.36.34c.16.16.31.32.46.5a5.66 5.66 0 0 1 .39.52.7.7 0 0 1 .15.42 1.15 1.15 0 0 1-.52.91.84.84 0 0 1-.46.13.87.87 0 0 1-.5-.17 3.48 3.48 0 0 1-.53-.51l-.48-.54q-.51-.56-1-1.12t-1-1.11a5.16 5.16 0 0 1-.63.08l-.63.05v2.3zm2.77-7.49a3 3 0 0 0-1.35-.42 3.47 3.47 0 0 0-1.42.2v3.5a10.75 10.75 0 0 0 1.37-.18 2.91 2.91 0 0 0 1.25-.58 2.08 2.08 0 0 0 .5-.58 1.73 1.73 0 0 0 .23-.68 1.42 1.42 0 0 0-.09-.68 1.3 1.3 0 0 0-.48-.58zM548.29 89.31a1.16 1.16 0 0 1 .3-.51 1 1 0 0 1 .46-.26.85.85 0 0 1 .5 0 .91.91 0 0 1 .44.37 1.1 1.1 0 0 1 .12.19.45.45 0 0 1 .05.2v4.42q0 2.21-.16 4.44a.72.72 0 0 1-.22.56 1.05 1.05 0 0 1-.51.25 1 1 0 0 1-.58-.06.8.8 0 0 1-.43-.39q-1-1.66-2.12-3.18t-2.32-3v5.91a1.34 1.34 0 0 1-.07.29.81.81 0 0 1-.42.5.94.94 0 0 1-.58.06.92.92 0 0 1-.51-.31.91.91 0 0 1-.22-.62v-4.31-1.21-1-1-1a.76.76 0 0 1 .13-.45.89.89 0 0 1 .33-.29 1.14 1.14 0 0 1 .88-.05 1 1 0 0 1 .38.26q.19.19.38.42c.12.15.24.3.35.45l.27.36.93 1.14 1 1.21q.45.59.87 1.18t.66 1.12q0-1.41.06-2.8t0-2.8zM555.61 96.86a1.05 1.05 0 0 1 .67.24 1 1 0 0 1 .34.52.83.83 0 0 1-.56 1 2.33 2.33 0 0 1-.66.14 7.56 7.56 0 0 1-.76 0h-2.11a.89.89 0 0 1-.56-.18 1 1 0 0 1-.33-.42.91.91 0 0 1 0-.53 1 1 0 0 1 .29-.51.89.89 0 0 1 .57-.25 4.13 4.13 0 0 1 .71 0v-6.14h-.67a1.12 1.12 0 0 1-.62-.22.83.83 0 0 1-.31-.39.77.77 0 0 1 0-.45 1.13 1.13 0 0 1 .21-.43.92.92 0 0 1 .39-.29 1.14 1.14 0 0 1 .45-.09h3.19a.26.26 0 0 1 .15 0l.15.08a1 1 0 0 1 .48.57.83.83 0 0 1-.09.73.81.81 0 0 1-.27.29 1.08 1.08 0 0 1-.36.14 2 2 0 0 1-.39 0h-.39v6.16h.44zM564.3 89.31a1.16 1.16 0 0 1 .3-.51 1 1 0 0 1 .46-.26.85.85 0 0 1 .5 0 .91.91 0 0 1 .44.37 1.1 1.1 0 0 1 .12.19.45.45 0 0 1 .05.2v4.42q0 2.21-.17 4.44a.72.72 0 0 1-.22.56 1.05 1.05 0 0 1-.51.25 1 1 0 0 1-.58-.06.8.8 0 0 1-.43-.39q-1-1.66-2.12-3.18t-2.32-3v5.91a1.34 1.34 0 0 1-.07.29.81.81 0 0 1-.42.5.94.94 0 0 1-.58.06.92.92 0 0 1-.51-.31.91.91 0 0 1-.22-.62v-4.31-1.21-1-1-1a.76.76 0 0 1 .13-.45.89.89 0 0 1 .33-.29 1.14 1.14 0 0 1 .88-.05 1 1 0 0 1 .38.26q.19.19.38.42c.12.15.24.3.35.45l.27.36.93 1.14 1 1.21q.45.59.87 1.18t.83 1.18q0-1.41.06-2.8t0-2.8zM575.23 93a1.26 1.26 0 0 1 .53.3 1 1 0 0 1 .29.46.79.79 0 0 1 0 .51 1 1 0 0 1-.43.46 1.09 1.09 0 0 0 0 .38V96.75a2.17 2.17 0 0 1-.14.69 1.5 1.5 0 0 1-.26.36 4.21 4.21 0 0 1-.32.29 4.4 4.4 0 0 1-2.55 1 4.15 4.15 0 0 1-1.37-.14 4.78 4.78 0 0 1-1.32-.59 4.6 4.6 0 0 1-1.35-1.31 5.62 5.62 0 0 1-.8-1.73 5.54 5.54 0 0 1-.18-1.23 5.47 5.47 0 0 1 .1-1.27 4.88 4.88 0 0 1 .4-1.2 4.35 4.35 0 0 1 1.83-1.93 10.63 10.63 0 0 1 1.32-.62 5.69 5.69 0 0 1 1.08-.33 4.59 4.59 0 0 1 1.13-.08 6.15 6.15 0 0 1 .94.15 2.07 2.07 0 0 1 .86.41 1.23 1.23 0 0 1 .29.34 1 1 0 0 1 .14.41.82.82 0 0 1-.05.4.91.91 0 0 1-.7.53 1.37 1.37 0 0 1-.46 0 3.22 3.22 0 0 1-.46-.15l-.43-.16a1 1 0 0 0-.36-.05h-.38a10.66 10.66 0 0 0-1.09.38 5.15 5.15 0 0 0-1 .55 3.46 3.46 0 0 0-.8.77 2.34 2.34 0 0 0-.43 1.08 3.84 3.84 0 0 0 .08 1.57 3.15 3.15 0 0 0 .74 1.37 2.87 2.87 0 0 0 .83.63 2.67 2.67 0 0 0 1 .29 2.55 2.55 0 0 0 1-.11 2.14 2.14 0 0 0 .88-.54v-1.65l-.64.05h-.67a3.4 3.4 0 0 1-.65 0 1.87 1.87 0 0 1-.6-.21.82.82 0 0 1-.36-.41.91.91 0 0 1-.05-.51 1.07 1.07 0 0 1 .22-.47.84.84 0 0 1 .46-.29 2.06 2.06 0 0 1 .35 0h2.26z"/><circle class="cls-8" cx="539.76" cy="57.3" r="23"/><path class="cls-7" d="M539.76 57.3l-10.84 20.28a23 23 0 1 1 30.4-8.17z"/><path class="cls-9" d="M539.76 57.3l-11.19 20.09a23 23 0 0 1-11.81-20.09v-.61z"/><g id="Glasses_girl" data-name="Glasses girl"><path class="cls-8" d="M285.14 124.59c6.59-10.66 9-20 10.77-27.26 5-20.48 8-32.38 1.79-44.62-6.76-13.38-22.23-22.88-38.45-22.78-18 .11-32.55 11.93-39.08 23.91-11 20.22 5.49 32.31-2.39 64.13-5.35 21.6-15.26 28-10.9 35 6.82 11 39 7.62 59.16-7 10.46-7.6 16.69-17.48 19.1-21.38z"/><path id="body" class="cls-10" d="M314.18 142.79c-5.35-2.84-19.85-7.24-27.92-9.68a15 15 0 0 1-4.81-2.37 16 16 0 0 1-6.22-12.4 30.3 30.3 0 0 1-29.23-.78 13.79 13.79 0 0 1-.54 4.69c-.66 2.1-1.79 3.35-3.75 5.49a32.64 32.64 0 0 1-5.27 4.66c-7 4.79-21 6.72-28 10.41-5.18 2.76-11.39 9.15-14.41 25.73a104.51 104.51 0 0 0 134.53 0c-2.95-16.39-9.04-22.92-14.38-25.75z"/><ellipse id="face" class="cls-10" cx="261.33" cy="81.46" rx="34.64" ry="40.26"/><path d="M257.53 164.66c-21.74 0-41.93-4.2-58.67-11.4a55.28 55.28 0 0 0-4.8 15.27 104.5 104.5 0 0 0 134.53 0c-1.5-8.24-3.79-14-6.38-18-17.81 8.84-40.27 14.13-64.68 14.13z" fill="#ea4c88"/><path class="cls-6" d="M240 163.74l3.81-38.39c-.79.93-1.68 1.91-2.66 2.89A49.08 49.08 0 0 1 237 132l-4.06 30.75c1.18.26 2.45.49 3.81.68 1.12.13 2.25.24 3.25.31zM280.37 163l-2.24-35.7a16.37 16.37 0 0 0 6.39 5.11l3.75 29.31c-1.2.29-2.49.55-3.87.78s-2.77.43-4.03.5z"/><ellipse id="eyes" class="cls-12" cx="245.15" cy="83.64" rx="3.55" ry="3.38"/><ellipse id="eyes-2" data-name="eyes" class="cls-12" cx="277.43" cy="83.64" rx="3.55" ry="3.38"/><path id="right_ear" data-name="right ear" class="cls-10" d="M232.51 81.22c0 3.2-2.08 7-4.89 7.18-3.14.18-5.2-4.34-5.54-5.07s-2.52-5.5 0-8.11a5.73 5.73 0 0 1 5.54-1.22c3.15.93 4.88 4.33 4.89 7.22z"/><path id="left_ear" data-name="left ear" class="cls-10" d="M290.15 81.22c0 3.2 2.08 7 4.89 7.18 3.14.18 5.2-4.34 5.54-5.07s2.52-5.5 0-8.11A5.73 5.73 0 0 0 295 74c-3.12.93-4.85 4.33-4.85 7.22z"/><path id="mouth" d="M248.59 103h25.21c-.19.72-4 8-11.94 8.39a13.71 13.71 0 0 1-13.27-8.39z" fill="#ff8c7c"/><path id="mouth-2" data-name="mouth" class="cls-6" d="M250.73 103.67h21.19c-.16 0-3.41 6.64-10 7a11.19 11.19 0 0 1-11.19-7z"/><path class="cls-8" d="M297.44 60.07c-2.18-7.54-8.18-13.29-9.88-14.89-.28-.27-.63-.58-1.1-1A32.16 32.16 0 0 0 274 37.52a47.58 47.58 0 0 0-18.58-.88c-4.15.63-12.12 1.95-19.11 7.54-12.41 9.93-12.82 26.3-12.84 29.09a63.7 63.7 0 0 0 27.3-6 63.59 63.59 0 0 0 20.2-15A29.73 29.73 0 0 0 279.05 65a30.65 30.65 0 0 0 19.84 7.83 36.66 36.66 0 0 0 0-4.21c0-.45-.12-1.94-.44-3.92a40.66 40.66 0 0 0-1.01-4.63z"/><g id="earphone"><ellipse class="cls-6" cx="226.33" cy="83.16" rx="2.1" ry="2.9"/><ellipse class="cls-6" cx="296.33" cy="83.16" rx="2.1" ry="2.9"/><path class="cls-6" d="M227.32 83.46h1.12V91a.56.56 0 0 1-.56.56.56.56 0 0 1-.56-.56v-7.5-.04zM294.23 83.46h1.12V91a.56.56 0 0 1-.56.56.56.56 0 0 1-.56-.56v-7.5z"/><path class="cls-14" d="M227.87 91.26c-.84 15.6 3.3 24.8 7.53 30.42 5.42 7.19 12.53 10.56 20.75 22.77a81.78 81.78 0 0 1 6 10.63M294.8 91.32c1.83 14.31-1.44 22.92-4.64 28.08-5 8.12-11.83 10.77-20.69 23.3a89.07 89.07 0 0 0-7.27 12.3"/><path d="M265.38 175a1.3 1.3 0 0 1-1.5-1.06l-2.1-12.41a1.3 1.3 0 0 1 2.56-.43l2.1 12.41a1.3 1.3 0 0 1-1.06 1.49z" stroke-width=".36" stroke-miterlimit="10" stroke="#fff" fill="#fff"/><path class="cls-16" d="M262.22 154.65a13.86 13.86 0 0 0 .62 5.41M265.38 175c.64 3.18 1.19 6.63 1.61 10.32.29 2.63.49 5.14.61 7.53"/></g><path id="glasses" class="cls-17" d="M285 75.76h-14.14a5.79 5.79 0 0 0-5.86 5.78 11.18 11.18 0 0 0 .46 3.14 10.42 10.42 0 0 0-4.31-1 10.42 10.42 0 0 0-4.31 1 11.31 11.31 0 0 0 .46-3.17 5.75 5.75 0 0 0-5.83-5.73h-14.12a4.46 4.46 0 0 0-4.53 4.49v1.23a12.11 12.11 0 0 0 12 12.16h.45a12.19 12.19 0 0 0 10.8-6.87 9.06 9.06 0 0 1 5.11-1.72 9.08 9.08 0 0 1 5.11 1.71 12.19 12.19 0 0 0 10.8 6.87h.45a12 12 0 0 0 11.81-12.16v-1.24a4.3 4.3 0 0 0-4.35-4.49zm-39.74 16.46h-.45a10.68 10.68 0 0 1-10.56-10.73v-1.24a3 3 0 0 1 3.1-3.06h14.15a4.4 4.4 0 0 1 4.39 4.4 10.64 10.64 0 0 1-10.63 10.63zm42.65-10.73a10.52 10.52 0 0 1-10.37 10.73h-.45a10.64 10.64 0 0 1-10.63-10.63 4.4 4.4 0 0 1 4.39-4.4H285a2.88 2.88 0 0 1 2.91 3.06z"/></g><g id="Bald_dude" data-name="Bald dude"><path id="body-2" data-name="body" class="cls-10" d="M443.52 143.63c-5.35-2.84-19.85-7.24-27.92-9.68a15 15 0 0 1-4.81-2.37 16 16 0 0 1-6.22-12.4 30.3 30.3 0 0 1-29.23-.78 13.79 13.79 0 0 1-.54 4.69c-.66 2.1-1.79 3.35-3.75 5.49a32.64 32.64 0 0 1-5.27 4.66c-7 4.79-21 6.72-28 10.41-5.18 2.76-11.39 9.15-14.41 25.73a104.51 104.51 0 0 0 134.53 0c-2.9-16.38-9.05-22.92-14.38-25.75z"/><path id="right_ear-2" data-name="right ear" class="cls-10" d="M361.84 84.92c0 3.2-2.08 7-4.89 7.18-3.14.18-5.2-4.34-5.54-5.07s-2.52-5.5 0-8.11a5.73 5.73 0 0 1 5.59-1.18c3.11.89 4.83 4.26 4.84 7.18z"/><path id="left_ear-2" data-name="left ear" class="cls-10" d="M419.48 84.92c0 3.2 2.08 7 4.89 7.18 3.14.18 5.2-4.34 5.54-5.07s2.52-5.5 0-8.11a5.73 5.73 0 0 0-5.54-1.18c-3.15.89-4.88 4.26-4.89 7.18z"/><path class="cls-7" d="M443.52 143.63c-5.35-2.84-19.85-7.24-27.92-9.68a15 15 0 0 1-4.81-2.37c-.34-.26-.66-.52-1-.8a43.5 43.5 0 0 1-18.93 4.16 42.65 42.65 0 0 1-21-5.23 31.87 31.87 0 0 1-4.18 3.53c-7 4.79-21 6.72-28 10.41-5.18 2.76-11.39 9.15-14.41 25.73a104.51 104.51 0 0 0 134.53 0c-2.8-16.38-8.95-22.92-14.28-25.75z"/><path d="M411.91 132.32a43.17 43.17 0 0 1-43.91-.72l2-1.9a44.53 44.53 0 0 0 39.83 1.08z" fill="#39d5ff"/><ellipse id="face-2" data-name="face" class="cls-10" cx="390.66" cy="82.3" rx="34.64" ry="40.26"/><path d="M366.9 113.45a46.06 46.06 0 0 0 23.78 15 43.7 43.7 0 0 0 34-46.17 37.46 37.46 0 0 1-2.16 5.53c-2.23 4.6-5.72 11.81-11.18 13.2-7.62 1.95-15.15-8.45-19.25-5.54a3.81 3.81 0 0 0-1.36 2 3.78 3.78 0 0 0-1.39-1.85c-4.34-2.81-11.45 7.9-19.34 6.38-7.38-1.42-11.67-12.75-12.24-14.24a27.73 27.73 0 0 1-1.35-4.85 46.53 46.53 0 0 0 10.49 30.54z" fill="#9e6c4b"/><ellipse id="eyes-3" data-name="eyes" class="cls-12" cx="374.49" cy="81.61" rx="3.55" ry="3.38"/><ellipse id="eyes-4" data-name="eyes" class="cls-12" cx="406.76" cy="81.61" rx="3.55" ry="3.38"/><path id="mouth-3" data-name="mouth" class="cls-6" d="M380.07 105.94h21.19c-.16 0-3.41 6.64-10 7a11.19 11.19 0 0 1-11.19-7z"/></g><ellipse id="face-3" data-name="face" class="cls-10" cx="327.6" cy="108.06" rx="34.64" ry="40.26"/><circle id="eyes-5" data-name="eyes" class="cls-12" cx="311.43" cy="111.13" r="3.55"/><circle id="eyes-6" data-name="eyes" class="cls-12" cx="343.7" cy="111.13" r="3.55"/><path id="mouth-4" data-name="mouth" class="cls-6" d="M316.29 131.7h22.18c-.17.72-3.56 7.39-10.5 7.77-4.8.25-9.35-2.77-11.68-7.77z"/><path id="right_ear-3" data-name="right ear" class="cls-10" d="M298.78 112.82c0 3.2-2.08 7-4.89 7.18-3.14.18-5.2-4.34-5.54-5.07s-2.52-5.5 0-8.11a5.73 5.73 0 0 1 5.54-1.18c3.11.9 4.88 4.29 4.89 7.18z"/><path id="left_ear-3" data-name="left ear" class="cls-10" d="M356.42 112.82c0 3.2 2.08 7 4.89 7.18 3.14.18 5.2-4.34 5.54-5.07s2.52-5.5 0-8.11a5.73 5.73 0 0 0-5.54-1.18c-3.15.9-4.88 4.29-4.89 7.18z"/><path id="glasses-2" data-name="glasses" d="M351.39 103.79h-14.14a5.76 5.76 0 0 0-5.83 5.74 11.3 11.3 0 0 0 .46 3.16 10.43 10.43 0 0 0-4.31-1 10.44 10.44 0 0 0-4.31 1 11.19 11.19 0 0 0 .46-3.15 5.74 5.74 0 0 0-5.83-5.71h-14.15a4.5 4.5 0 0 0-4.65 4.42v1.23a12.27 12.27 0 0 0 12.11 12.24h.45a12.19 12.19 0 0 0 10.8-6.87 9.06 9.06 0 0 1 5.11-1.72 9.08 9.08 0 0 1 5.11 1.71 12.19 12.19 0 0 0 10.8 6.87h.45c6.65 0 11.69-5.59 11.69-12.24v-1.23a4.15 4.15 0 0 0-4.22-4.45zm-39.74 16.46h-.45a10.84 10.84 0 0 1-10.68-10.81v-1.23a3.07 3.07 0 0 1 3.22-3h14.15a4.4 4.4 0 0 1 4.39 4.4 10.64 10.64 0 0 1-10.63 10.64zm42.53-10.81c0 5.86-4.4 10.81-10.26 10.81h-.45a10.64 10.64 0 0 1-10.63-10.63 4.4 4.4 0 0 1 4.39-4.4h14.15a2.73 2.73 0 0 1 2.8 3z"/><path id="hair_1" data-name="hair 1" d="M298.11 78.34c8.63-10.77 22.38-10.75 29.56-10.74s20.59 0 29.19 10.56c9.29 11.37 5.79 26.18 5.29 28.17a38.26 38.26 0 0 0-3.06-9.18 7.85 7.85 0 0 0-1.91-2.52 8 8 0 0 0-3.67-1.69 17.16 17.16 0 0 0-7.59.23c-7.87 2.14-17.23 1.92-17.93 1.9-4.36-.12-10.18-.29-16.51-3-.66-.28-6-2.59-9.87-1.64a10.1 10.1 0 0 0-3.43 1.64 10.29 10.29 0 0 0-2 2.21c-2.35 3.56-3.14 11.29-3.19 11.81-.5-2.09-3.88-16.52 5.12-27.75z"/><path id="body-3" data-name="body" class="cls-10" d="M380.46 169.39c-5.35-2.84-19.85-7.24-27.92-9.68a15 15 0 0 1-4.81-2.37 16 16 0 0 1-6.22-12.4 30.3 30.3 0 0 1-29.23-.78 13.79 13.79 0 0 1-.54 4.69c-.66 2.1-1.79 3.35-3.75 5.49a32.64 32.64 0 0 1-5.29 4.66c-7 4.79-21 6.72-28 10.41-5.18 2.76-11.39 9.15-14.41 25.73h134.53c-2.93-16.39-9.03-22.92-14.36-25.75z"/><path id="shirt_1" data-name="shirt 1" d="M352.54 159.71a15 15 0 0 1-4.81-2.37 16 16 0 0 1-4.94-6.38 16.16 16.16 0 0 1-31.69-.57c-.19.32-.35.56-.45.72a32.66 32.66 0 0 1-2.67 3.19 32.13 32.13 0 0 1-5.28 4.7c-7 4.79-21 6.73-28 10.42-5.18 2.76-11.39 9.16-14.41 25.74h134.53c-3-16.36-9.07-22.89-14.41-25.72s-19.8-7.29-27.87-9.73z" fill="#7f8c8d"/><g id="Pink_hair_girl" data-name="Pink hair girl"><path id="body-4" data-name="body" class="cls-21" d="M510.31 169.39c-5.35-2.84-19.85-7.24-27.92-9.68a15 15 0 0 1-4.81-2.37 16 16 0 0 1-6.23-12.4 30.3 30.3 0 0 1-29.23-.78 13.79 13.79 0 0 1-.54 4.69c-.66 2.1-1.79 3.35-3.75 5.49a32.64 32.64 0 0 1-5.27 4.65c-7 4.79-21 6.72-28 10.41-5.18 2.76-11.39 9.15-14.41 25.73h134.53c-2.94-16.38-9.04-22.91-14.37-25.74z"/><ellipse class="cls-22" cx="457.36" cy="96.17" rx="41.81" ry="40.95"/><ellipse id="face-4" data-name="face" class="cls-21" cx="457.45" cy="108.57" rx="34.64" ry="40.77"/><path class="cls-9" d="M511 169.39a134.29 134.29 0 0 0-15-5.39l-8.87-2.73-3.71-1.15a124.33 124.33 0 0 1-18.41 9.5 108.45 108.45 0 0 1-18.46 5.82 116.44 116.44 0 0 1-22.7 2.44 123.58 123.58 0 0 1-25.85-2.41 43.94 43.94 0 0 0-7.76 19.65h135.2c-3.57-19.24-11.44-24.25-14.44-25.73z"/><ellipse id="eyes-7" data-name="eyes" class="cls-12" cx="442.71" cy="113.1" rx="3.55" ry="3.38"/><ellipse id="eyes-8" data-name="eyes" class="cls-12" cx="474.98" cy="113.1" rx="3.55" ry="3.38"/><path id="right_ear-4" data-name="right ear" class="cls-21" d="M428.63 110c0 3.2-2.08 7-4.89 7.18-3.14.18-5.2-4.34-5.54-5.07s-2.52-5.5 0-8.11a5.73 5.73 0 0 1 5.54-1.18c3.15.86 4.88 4.25 4.89 7.18z"/><path id="left_ear-4" data-name="left ear" class="cls-21" d="M486.27 110c0 3.2 2.08 7 4.89 7.18 3.14.18 5.2-4.34 5.54-5.07s2.52-5.5 0-8.11a5.73 5.73 0 0 0-5.54-1.18c-3.16.86-4.88 4.25-4.89 7.18z"/><path id="mouth-5" data-name="mouth" class="cls-17" d="M444.71 131.7h25.21c-.19.72-4 8-11.94 8.39a13.71 13.71 0 0 1-13.27-8.39z"/><path id="mouth-6" data-name="mouth" class="cls-6" d="M446.86 132.41h21.19c-.16 0-3.41 6.64-10 7a11.19 11.19 0 0 1-11.19-7z"/><path class="cls-22" d="M489.94 92.38a109.68 109.68 0 0 1-31.54 4.92 109.7 109.7 0 0 1-33.4-4.92 32.92 32.92 0 0 1 64.93 0z"/><ellipse class="cls-22" cx="457.47" cy="57.8" rx="16.06" ry="14.59"/><path class="cls-22" d="M407.72 189c-5.57-9.76-5.19-15.9-3.72-19.76 2.93-7.69 11.26-9 23.16-21.55a87.89 87.89 0 0 0 7.24-8.7 34.3 34.3 0 0 0 7.73 6.15 21.74 21.74 0 0 1-.5 9c-3.3 11.78-16.74 18.22-18.85 19.23-6.8 3.26-11.31 3.22-13.83 7.75a12.72 12.72 0 0 0-1.23 7.88z"/></g><g id="Headphones_dude" data-name="Headphones dude"><path id="body-5" data-name="body" class="cls-10" d="M247.79 169.24c-5.35-2.84-19.85-7.24-27.92-9.68a15 15 0 0 1-4.81-2.37 16 16 0 0 1-6.22-12.4 30.3 30.3 0 0 1-29.24-.79 13.79 13.79 0 0 1-.54 4.69c-.66 2.1-1.79 3.35-3.75 5.49a32.64 32.64 0 0 1-5.27 4.65c-7 4.79-21 6.72-28 10.41-5.18 2.76-11.39 9.15-14.41 25.73h134.53c-2.94-16.37-9.04-22.9-14.37-25.73z"/><ellipse id="face-5" data-name="face" class="cls-10" cx="194.93" cy="107.91" rx="34.64" ry="40.26"/><path class="cls-22" d="M229.57 92.14a124.2 124.2 0 0 1-33.65 4.92 124.27 124.27 0 0 1-35.62-4.92c2.93-15.92 17.85-27.6 35-27.45 16.83.15 31.39 11.75 34.27 27.45z"/><path d="M247.79 169.24c-5.35-2.84-19.85-7.24-27.92-9.68a15 15 0 0 1-4.81-2.37c-.34-.26-.66-.52-1-.8a43.5 43.5 0 0 1-18.93 4.16 42.65 42.65 0 0 1-21-5.23 31.87 31.87 0 0 1-4.18 3.53c-7 4.79-21 6.72-28 10.41-5.18 2.76-11.39 9.15-14.41 25.73h134.53c-2.85-16.39-8.95-22.92-14.28-25.75z" fill="#f1c40f"/><path d="M215.53 156.72a1.45 1.45 0 0 1-.28 2.31 40.82 40.82 0 0 1-42.14-.8 1.45 1.45 0 0 1-.17-2.34l.17-.14a1.45 1.45 0 0 1 1.6-.18 44.54 44.54 0 0 0 39.21.89 1.45 1.45 0 0 1 1.61.26z" fill="#c4a10e"/><ellipse id="eyes-9" data-name="eyes" class="cls-12" cx="178.76" cy="110.8" rx="3.55" ry="3.38"/><ellipse id="eyes-10" data-name="eyes" class="cls-12" cx="211.03" cy="110.8" rx="3.55" ry="3.38"/><path id="mouth-7" data-name="mouth" class="cls-6" d="M184.34 133h21.19c-.16 0-3.41 6.64-10 7a11.19 11.19 0 0 1-11.19-7z"/><path class="cls-25" d="M159.56 100.93v25.69a10.74 10.74 0 0 1-10.74-10.74v-4.21a10.74 10.74 0 0 1 10.74-10.74z" transform="rotate(-8.1 158.181 114.279)"/><path class="cls-25" d="M239.64 100.55v26.14a10.74 10.74 0 0 1-10.74-10.74v-4.66a10.74 10.74 0 0 1 10.74-10.74z" transform="rotate(-171.22 234.269 113.616)"/><path class="cls-25" d="M155.28 101.77l-2.74 1.46c.63-22.67 19.19-40.86 41.3-41.14 22.87-.29 42.3 18.69 42.38 42.18l-2.19-2a39.72 39.72 0 0 0-78.74-.49z"/><path d="M159.92 128l-1.52.23-.45-2.6c.26 0 .54.08.84.1h.78z" fill="#8a0028"/><path d="M159.12 127.76c.35 1.68.88 4.15 1.57 7.12 2.82 12.15 4.2 18.24 5.76 21.44 4.83 10 11.54 8.35 18.56 18.25a40.18 40.18 0 0 1 6.91 20.74" stroke="#8a0028" stroke-width=".36" stroke-miterlimit="10" fill="none"/><path class="cls-22" d="M232.85 95.51a4 4 0 0 1-2.64 4.36 107.2 107.2 0 0 1-35.39 6.21A107.14 107.14 0 0 1 159 100a4 4 0 0 1-2.65-4.37v-.08a4 4 0 0 1 5.11-3.32 118.06 118.06 0 0 0 33.14 4.47 118.24 118.24 0 0 0 33-5 4 4 0 0 1 5.17 3.3z"/><rect class="cls-28" x="159.49" y="98.97" width="2.72" height="27.68" rx="1.36" ry="1.36" transform="rotate(-8.1 164.982 113.265)"/><rect class="cls-28" x="226.25" y="98.66" width="2.72" height="28.04" rx="1.36" ry="1.36" transform="rotate(-171.22 227.609 112.684)"/></g><path stroke="#0f0f0f" stroke-linecap="round" stroke-linejoin="round" stroke-width="3.52" fill="none" d="M1.76 197.3h634"/></svg>
