<svg id="Layer_1" data-name="Layer 1" xmlns="http://www.w3.org/2000/svg" viewBox="0 0 422.83 422.83">
    <defs>
        <style>
            .cls-1 {
                fill: #f19b1f;
            }

            .cls-2 {
                fill: #efc319;
            }

            .cls-3 {
                fill: #e47d25;
            }
        </style>
    </defs>
    <title>banking</title>
    <g id="Bank">
        <circle class="cls-1" cx="211.42" cy="211.42" r="211.4" transform="translate(-83.89 164.64) rotate(-36)" />
        <circle class="cls-2" cx="211.42" cy="211.42" r="187.71" />
        <path class="cls-3" d="M288.63,257.17c.16-39.63-30.92-51.72-60.54-60.87V140.49a139.71,139.71,0,0,1,43.14,17.37l14.7-31.2c-15.74-10.41-36.19-18-57.84-20.57V73H194.75v33.29c-35.72,5.13-58.84,26.13-58.84,57.25,0,38.29,29.79,50.09,58.84,58.8v60.55c-18.76-3.62-38.95-13.57-55.83-29l-15.3,30.6a129.55,129.55,0,0,0,71.14,32.38v25.54h33.33v-26C264.24,310.92,288.63,289.38,288.63,257.17Zm-113.11-96.9c0-10.32,7.25-17.24,19.23-20.23v44.8C183.31,179.43,175.52,172.26,175.52,160.26Zm52.57,122.08V233.2c12.55,5.47,21.24,12.82,21.24,25.77C249.32,270.67,241.62,278.75,228.08,282.35Z"
        />
    </g>
</svg>