<svg id="Layer_1" data-name="Layer 1" xmlns="http://www.w3.org/2000/svg" viewBox="0 0 422.83 423.72"><defs><style>.cls-1{fill:#3b96d2;}.cls-2,.cls-3{fill:#e6e7e8;}.cls-2{stroke:#999;stroke-miterlimit:10;}.cls-4{fill:#98999a;}</style></defs><title>buildings</title><g id="Public_Places" data-name="Public Places"><circle class="cls-1" cx="211.55" cy="211.86" r="211.4" transform="translate(-84.19 258.48) rotate(-54)"/><path class="cls-2" d="M210.36,67.53,83.46,173a1.85,1.85,0,0,0,1.18,3.27h253.8a1.85,1.85,0,0,0,1.18-3.27L212.73,67.53A1.85,1.85,0,0,0,210.36,67.53Z"/><rect class="cls-3" x="121.61" y="177.94" width="31.95" height="97.79"/><rect class="cls-3" x="195.57" y="177.94" width="31.95" height="97.79"/><rect class="cls-3" x="269.54" y="177.94" width="31.95" height="97.79"/><rect class="cls-2" x="195.57" y="176.4" width="31.95" height="234.21" transform="translate(-81.96 505.05) rotate(-90)"/><rect class="cls-4" x="153.56" y="177.94" width="42.02" height="97.79"/><rect class="cls-4" x="227.52" y="177.94" width="42.02" height="97.79"/><polygon class="cls-4" points="211.55 82.46 117.81 160.34 305.29 160.34 211.55 82.46"/><rect class="cls-2" x="195.35" y="192.92" width="31.95" height="255.06" transform="translate(-109.12 531.78) rotate(-90)"/></g></svg>