<svg id="Layer_1" data-name="Layer 1" xmlns="http://www.w3.org/2000/svg" viewBox="0 0 422.83 423.72"><defs><style>.cls-1{fill:#f05d4e;}.cls-2{fill:#f7a07c;}.cls-3{fill:#3b96d2;}.cls-4{fill:#eceff0;}.cls-5{fill:#2c3e50;}.cls-6{fill:#9f9e9e;}.cls-7{fill:#374a59;}</style></defs><title>business</title><g id="Corporate"><circle class="cls-1" cx="211.42" cy="211.42" r="211.4" transform="translate(-83.89 164.64) rotate(-36)"/><g id="corporate_icon" data-name="corporate icon"><path id="body" class="cls-2" d="M318.16,323.25c-10.7-5.68-39.68-14.46-55.81-19.35a30.05,30.05,0,0,1-9.62-4.75,32,32,0,0,1-12.44-24.78,60.57,60.57,0,0,1-58.43-1.55,27.57,27.57,0,0,1-1.09,9.37c-1.33,4.19-3.58,6.7-7.5,11a65.24,65.24,0,0,1-10.54,9.3c-14,9.57-42,13.43-55.88,20.81-10.36,5.51-22.78,18.3-28.8,51.44A208.9,208.9,0,0,0,347,374.67C341,342,328.83,328.92,318.16,323.25Z"/><ellipse id="face" class="cls-2" cx="212.51" cy="200.66" rx="69.24" ry="80.47"/><path id="shirt_1" data-name="shirt 1" class="cls-3" d="M262.35,303.9a30,30,0,0,1-9.62-4.75,31.88,31.88,0,0,1-9.87-12.75L212,311.8l-32.44-26.53a15,15,0,0,1-1.08,1.43,58.89,58.89,0,0,1-5.51,6.38h.17a61.7,61.7,0,0,1-10.46,9.34c-14,9.57-42,13.45-55.84,20.83C96.45,328.77,84.05,341.57,78,374.71a208.91,208.91,0,0,0,268.92,0c-5.95-32.7-18.13-45.75-28.79-51.41S278.48,308.79,262.35,303.9Z"/><g id="Collar"><path class="cls-4" d="M242.87,286.39,211.95,311.7l-32.42-26.43c-1.38,2.6-3.36,4.8-6.24,7.94-1.19,1.3-2.37,2.47-3.5,3.54l32.74,26.69,9.4-11.55,9.36,11.55,30.51-25A31.84,31.84,0,0,1,242.87,286.39Z"/></g><path id="red_tie" data-name="red tie" class="cls-5" d="M214.44,323.87l4.12-3.74L212,311.68,205.45,320l4.06,4c-2,12.18-4.22,39.92-6.65,90.24l8.91,7.67,8.75-7.63C218.42,363.78,216.37,336,214.44,323.87Z"/><path id="right_ear" data-name="right ear" class="cls-2" d="M154.9,205.9c0,6.39-4.17,14-9.77,14.35-6.27.35-10.4-8.68-11.07-10.14-.75-1.63-5-11,0-16.21,3-3.07,7.77-3.3,11.07-2.36C151.43,193.33,154.88,200.12,154.9,205.9Z"/><path id="left_ear" data-name="left ear" class="cls-2" d="M270.12,205.9c0,6.39,4.17,14,9.77,14.35,6.27.35,10.4-8.68,11.07-10.14.75-1.63,5-11,0-16.21-3-3.07-7.77-3.3-11.07-2.36C273.59,193.33,270.13,200.12,270.12,205.9Z"/><path class="cls-6" d="M286.77,141.93a34.34,34.34,0,0,1-19.13-.83c-7-2.54-10.45-6.83-14.23-10.28-16.09-14.72-38.94-15-40.52-15-19.47,0-36.06,11.59-39.44,14-6.82,4.77-10.78,9.29-19.76,12.18a47.34,47.34,0,0,1-20.79,1.66,311.34,311.34,0,0,0,18.2,71.53l3.7-52.81a105,105,0,0,0,113.8-5.53l7.67,55.52A334.52,334.52,0,0,0,284.42,170C285.67,160.1,286.41,150.71,286.77,141.93Z"/><path class="cls-5" d="M252,298.76,235.41,422.3a200.29,200.29,0,0,0,29.79-5.24c37.1-9.47,64.45-27.85,81.85-42.3-5.95-32.7-18.13-45.75-28.79-51.41C299.84,313.57,276,307.89,262.44,304a30.83,30.83,0,0,1-7.77-3.39A29.88,29.88,0,0,1,252,298.76Z"/><path class="cls-5" d="M169.76,296.62c-.36.36-.91.89-1.61,1.51a48.16,48.16,0,0,1-4.07,3.19,74.52,74.52,0,0,1-18.16,8.81c-13,4-31.68,9.67-39,13.21-10.29,5-22.52,17.43-28.78,51.45a208.8,208.8,0,0,0,111,47.64Z"/><path class="cls-7" d="M267.42,352.88l-32,69.42,12-85.87Z"/><path class="cls-7" d="M155.7,353.26l33.42,69.18-13.65-86Z"/><path class="cls-7" d="M269.51,326.46,247,336.28l5-37.88Z"/><path class="cls-7" d="M150.37,328.81l25.7,8.48-6-40.42Z"/></g></g></svg>