<svg id="Layer_1" data-name="Layer 1" xmlns="http://www.w3.org/2000/svg" viewBox="0 0 422.83 422.83"><defs><style>.cls-1{fill:#058a80;}.cls-2{fill:#2c3e50;}.cls-3{fill:#efc319;}</style></defs><title>education</title><g id="Education"><circle class="cls-1" cx="211.19" cy="210.65" r="211.4"/><path class="cls-2" d="M218.72,252.41l-3.23.2-98.87-35.3a4.09,4.09,0,0,0-6.63,3.08c-.85,31.87-.52,55.58.16,65,.23,3.24.85,9.51,4.8,15.08A26,26,0,0,0,127.58,310a249.22,249.22,0,0,0,165,0A26,26,0,0,0,310,285.43q-.38-34.33-.75-68.66a6.72,6.72,0,0,0-9.8-5.89l-79.62,41.24A2.65,2.65,0,0,1,218.72,252.41Z"/><path class="cls-2" d="M214.29,245.49,72.55,193.14A7.6,7.6,0,0,1,71.1,179.6L198.41,98.43a7.6,7.6,0,0,1,7.28-.49l144.7,66.93a7.6,7.6,0,0,1,.27,13.67l-130.27,66.6A7.6,7.6,0,0,1,214.29,245.49Z"/><path class="cls-3" d="M310.1,200.12l-20.4,10.44-73.95-36.45a8.12,8.12,0,0,1-.12-14.54l.18-.09a8.18,8.18,0,0,1,7.15-.1Z"/><path class="cls-3" d="M312.88,290.77l-10.79-13.7L291.91,291.6q-1-40.63-2.08-81.26l20-10.36Z"/></g></svg>