<svg id="Layer_1" data-name="Layer 1" xmlns="http://www.w3.org/2000/svg" viewBox="0 0 422.83 423.72"><defs><style>.cls-1{fill:#2c3e50;}.cls-2{fill:#f05d4e;}</style></defs><title>entertainment</title><g id="Entertainment"><circle class="cls-1" cx="211.1" cy="211.88" r="211.96"/><path class="cls-2" d="M322.17,106.58H133.77a23,23,0,0,0-23,23v15.2h0l8.28,126.86a39.89,39.89,0,0,0-17.38.92C85.18,277,74.4,290.33,77.64,302.24s19.27,17.94,35.81,13.45c12.82-3.48,22.14-12.26,24.2-21.58h0v-.24a17.09,17.09,0,0,0,.18-6.14q2.08-71.48,4.16-143H313.92q3.79,54.74,7.58,109.47a46.06,46.06,0,0,0-14.69,1.14c-16.54,4-27.32,15.68-24.08,26.18S302,297.35,318.53,293.4c12.82-3.07,22.15-10.8,24.2-19h.18l0-.84A13.21,13.21,0,0,0,343,269q1.06-62.1,2.13-124.21h0v-15.2A23,23,0,0,0,322.17,106.58Z"/></g></svg>