<svg id="Layer_1" data-name="Layer 1" xmlns="http://www.w3.org/2000/svg" viewBox="0 0 422.83 423.72"><defs><style>.cls-1{fill:#149f84;}.cls-2{fill:#fff;}.cls-3,.cls-4{fill:#9ba9b8;}.cls-4{stroke:#fff;stroke-miterlimit:10;stroke-width:0.25px;}</style></defs><title>hospitality</title><circle class="cls-1" cx="211.46" cy="212.12" r="211.4" transform="translate(-55.63 347.68) rotate(-72)"/><rect class="cls-2" x="145.74" y="77.87" width="131.44" height="233.83"/><rect class="cls-2" x="274.2" y="197.84" width="76.24" height="113.87"/><rect class="cls-2" x="69.5" y="197.84" width="76.24" height="113.87"/><rect class="cls-3" x="158.73" y="145.12" width="26.54" height="26.54"/><rect class="cls-3" x="198.18" y="145.12" width="26.54" height="26.54"/><rect class="cls-3" x="237.64" y="145.12" width="26.54" height="26.54"/><rect class="cls-3" x="158.73" y="109.12" width="26.54" height="26.54"/><rect class="cls-3" x="198.18" y="109.12" width="26.54" height="26.54"/><rect class="cls-3" x="237.64" y="109.12" width="26.54" height="26.54"/><rect class="cls-3" x="158.73" y="181.52" width="26.54" height="26.54"/><rect class="cls-3" x="198.18" y="181.52" width="26.54" height="26.54"/><rect class="cls-3" x="237.64" y="181.52" width="26.54" height="26.54"/><rect class="cls-3" x="158.73" y="217.92" width="26.54" height="26.54"/><rect class="cls-3" x="198.19" y="217.92" width="26.54" height="26.54"/><rect class="cls-3" x="237.64" y="217.92" width="26.54" height="26.54"/><rect class="cls-3" x="284.88" y="212.45" width="22.06" height="22.06"/><rect class="cls-3" x="317.69" y="212.45" width="22.06" height="22.06"/><rect class="cls-3" x="284.88" y="243.48" width="22.06" height="22.06"/><rect class="cls-3" x="317.69" y="243.48" width="22.06" height="22.06"/><rect class="cls-3" x="284.88" y="275.03" width="22.06" height="22.06"/><rect class="cls-3" x="317.69" y="275.03" width="22.06" height="22.06"/><rect class="cls-3" x="83.16" y="209.57" width="22.06" height="22.06"/><rect class="cls-3" x="115.96" y="209.57" width="22.06" height="22.06"/><rect class="cls-3" x="83.16" y="240.6" width="22.06" height="22.06"/><rect class="cls-3" x="115.96" y="240.6" width="22.06" height="22.06"/><rect class="cls-3" x="83.16" y="272.15" width="22.06" height="22.06"/><rect class="cls-3" x="115.96" y="272.15" width="22.06" height="22.06"/><rect class="cls-4" x="198.17" y="270.51" width="13.27" height="40.07"/><rect class="cls-4" x="211.47" y="270.51" width="13.27" height="40.07"/><rect class="cls-3" x="158.74" y="253.95" width="26.54" height="26.54"/><rect class="cls-3" x="237.66" y="253.95" width="26.54" height="26.54"/></svg>