<svg viewBox="0 0 710.41 358.77" xmlns="http://www.w3.org/2000/svg"><path d="M710.41 331.2a27.81 27.81 0 0 1-28 27.57H28.04a27.81 27.81 0 0 1-28-27.57V27.57A27.81 27.81 0 0 1 28.04 0h654.33a27.81 27.81 0 0 1 28 27.57z" fill="#231f20"/><path d="M503.56 312.59l-9.79-9.78v-11.67h17.09v6l1.25 1.25h8.32l1.25-1.25v-5.44l-1.25-1.25h-16.87l-9.77-9.88v-17l9.79-9.78h25.44l9.77 9.78v12h-17.07v-6.27l-1.28-1.31h-8.27l-1.27 1.31v5.6l1.3 1.36h16.82l9.77 9.78v16.79l-9.77 9.78zm-71.54 0v-22l-1.41-1.41h-7.15v9.17h3.45v14.21h-23.92v-14.18h3.46v-30.41h-4.55v34.85l-9.88 9.77h-25.34l-9.78-9.78v-34.84h-1.19v3.38h-14.2v-3.37h-2.18v30.41h3.46v14.21h-24v-14.22h3.46v-30.41h-2.26v3.38h-14.15v-3.37h-1.18v30.41h3.46v14.21h-19.56l-15-24.94v10.73h3.46v14.21h-65.19v-14.22h3.46v-30.41h-8.09l-10.23 30.41h2.59v14.21h-31.77v-14.21h2.24l-10.15-30.41h-4.68v-14.21h24.36v14.21h-1.7l5.63 16.86 5.63-16.86h-1.74v-14.21h84.85l15.42 25.66v-11.45h-3.46v-14.21h93.17v14.21h-3.46v29.11l1.36 1.3h8.24l1.3-1.28v-29.13h-3.45v-14.21h57.93l9.77 9.78v15l-3.61 3.63 3.61 3.63v12.61h4.65v-30.44h-3.46v-14.21h43.52v16.51h-14.12v-2.3h-8.94v8.18h1.1v-2.3h14.21v18.65h-14.2v-2.22h-1.1v8.1h8.94v-2.3h14.13v16.51zm-175.46-14.21v-30.41h-1.18v2.3h-14.16v-2.3h-8.92v8.18h1.11v-2.3h14.15v18.65h-14.2v-2.22h-1.11v8.1h8.92v-2.3h14.13v2.3zm174.13-23.3l1.38-1.36v-4.4l-1.38-1.36h-7.23v7.12z" fill="#fff"/><path d="M504.18 311.15l-8.94-8.94v-9.64h14.21v5.13l2.08 2.09h9.52l2.08-2.09v-6.63l-2.08-2.09h-16.87l-8.94-9v-15.84l8.94-8.94h24.24l8.95 8.94v10h-14.23v-5.44l-2.1-2.16h-9.48l-2.11 2.16v6.76l2.11 2.24h16.85l8.95 8.94v15.6l-8.95 8.94zm-52.5 0v-11.34h3.46v-33.28h-3.46v-11.34h40.66v13.64h-11.27v-2.31h-11.79v11.06h4v-2.3h11.28v15.78h-11.31v-2.23h-4v11h11.79v-2.3h11.26v13.65zm-18.19 0v-21.12l-2.25-2.25h-9.22v12h3.46v11.34h-21.05v-11.31h3.46v-33.28h-3.46v-11.34h34.25l8.95 8.94v13.79l-4.22 4.22 4.22 4.22v13.45h3.46v11.34zm-2.23-34.64l2.23-2.19v-5.62l-2.23-2.19h-9.24v10zm-64 34.64l-8.94-8.94v-35.68h-3.46v-11.34h21.05v11.34h-3.45v31.17l2.22 2.12h9.39l2.15-2.11v-31.18h-3.46v-11.34h21v11.34h-3.37v35.69l-9 8.94zm-47.06 0v-11.34h3.46v-33.28h-5.1v3.38h-11.28v-14.72h47v14.71h-11.35v-3.37h-5v33.28h3.46v11.34zm-30.85 0l-17.25-28.68v17.33h3.46v11.34h-21v-11.33h3.46v-33.28h-3.46v-11.34h16.91l17.67 29.4v-18.06h-3.46v-11.34h21.05v11.34h-3.46v33.28h3.46v11.34zm-76.09 0v-11.34h3.46v-33.28h-3.46v-11.34h40.64v13.64h-11.25v-2.31h-11.79v11.06h4v-2.3h11.34v15.78h-11.37v-2.23h-4v11h11.79v-2.3h11.26v13.65zm-44 0v-11.34h2.8l-11.12-33.28h-4.27v-11.34h21.54v11.34h-2.3l7.62 22.82 7.63-22.82h-2.31v-11.34h22.21v11.34h-4.9l-11.19 33.28h3.21v11.34z" fill="#1b1d21"/><path d="M309.62 267.57h6.59v-3.37h9.8v38h-3.45v6.67h16.46v-6.67h-3.46v-38h9.71v3.37h6.67v-10h-42.32zm-118.46-3.37h3.21l-10.88 32.5-10.87-32.52h3.21v-6.67h-16.87v6.67h3.6l12.68 38h-3.68v6.67h24.28v-6.67h-4.11l12.76-38h4.2v-6.67h-17.54zm96.81 0h3.46v28.82l-21.32-35.48h-13.27v6.67h3.46v38h-3.46v6.67h16.39v-6.67h-3.46v-28.13l20.91 34.74h13.67v-6.67h-3.46v-38h3.46v-6.67h-16.39zm-72.36 0h3.46v38h-3.51v6.67h36v-9h-6.59v2.31h-16.41v-15.67h8.64v2.19h6.66v-11.08h-6.66v2.3h-8.64v-15.73h16.46v2.31h6.54v-9h-36zm319.43 7.57v-6.67l-7.56-7.57h-22.33l-7.59 7.57v13.91l7.58 7.66h16.88l3.45 3.46v8.57l-3.45 3.46h-11.46l-3.44-3.46v-3.78h-9.56v6.34l7.58 7.58h22.32l7.56-7.58v-13.68l-7.56-7.57h-16.9l-3.46-3.63v-8.68l3.46-3.54h11.45l3.45 3.54v4zm-81-7.57h3.47v38h-3.47v6.67h36v-9h-6.58v2.31h-16.52v-15.67h8.62v2.19h6.67v-11.08h-6.67v2.3h-8.65v-15.73h16.48v2.31h6.58v-9h-36zm-68.89 0h3.41v34.5l-3.55 3.46h-11.25l-3.63-3.46v-34.51h3.43v-6.67H357.2v6.67h3.46v37l7.57 7.58h22.23l7.64-7.58v-37h3.38v-6.67h-16.37zm60.18 23.13l-5.19-5.18 5.19-5.19V265.1l-7.59-7.57h-31v6.67h3.46v38h-3.44v6.67h16.38v-6.67h-3.45v-16.76h12.52l3.61 3.62v19.76h12.92v-6.67h-3.45zm-9.47-12l-3.61 3.54h-12.56v-14.68h12.52l3.61 3.54zm-325.3-26.89l-8.51-37.83 21.21-4.77-16.37-72.77-21.2 4.77-6-26.75 24.27-38.39 36.14-8.13 29.46 130.86 16.87-3.79 8.51 37.83zm79.56-22.2l-6.72-29.88-16.84 3.79-29.39-130.6-31.61 7.1-21.62 34.24 4.93 21.93 21.21-4.77 18.16 80.73-21.21 4.77 6.73 29.88zm-72.26 10.68l-4.3-19.27 21.21-4.77-20.49-91.09-21.2 4.77-3-13.5 20.17-31.88 22.65-5.09 29.3 130.61 16.87-3.79 4.34 19.28zm76.9-36.5l-2.2-25.1 47.24-4.08.73 8.37 6.15 5.17 25.1-2.17 4.94-5.88-1.45-16.73-5.88-4.94-21.4 1.85-3.43-39.88 21.89-1.89 4.47-5.6-1.44-16.73-5.88-4.95-25.34 2.19-4.95 5.88 1 11.81-47.24 4.09-2.47-28.55 25.18-29.94 75.78-6.55 30 25.18 4.43 51.18-6.75 8 8 6.74 4.43 51.18-25.18 29.94-75.79 6.55zm30.57 20.91l73.81-6.38 22.26-26.47-4.26-49.21-9.08-7.64 7.64-9.09-4.2-48.47-27.27-22.94-72.59 6.28-22.7 27 2 23.13 39.13-3.38-.77-8.86 7.86-9.36 27.07-2.34 9.09 7.64 1.66 19.2-7.42 8.82-18.45 1.59 2.72 31.5 18.45-1.6 9.11 7.89 1.59 18.46-7.87 9.36-27.07 2.33-9.35-7.87-.44-5.17-39.13 3.38 1.72 19.94zM204.2 194.9l-1-11.07 28.05-2.43.3 3.44 11.5 9.67 33.7-2.91 9.9-11.76-2.09-24.86-11.76-9.89-16.24 1.4-1.78-20.67 16.24-1.4 9.85-11.72-2.14-24.9-11.77-9.89-33.71 2.91-9.69 11.5.6 6.89-28.28 2.49-1.22-14.32 20.9-24.86L282 56.78l24.56 20.68 3.66 42.32-10.57 12.57 12.56 10.57 3.66 42.33-20.41 24.31-66.9 5.79zm134.44-5.92l1.41-25.15 47.35 2.66-.48 8.38 5.37 6 25.15 1.41 5.72-5.12.95-16.77-5.12-5.73-21.43-1.21 2.24-39.95 21.92 1.2 5.22-4.9.94-16.77-5.12-5.73-25.4-1.4-5.73 5.12-.66 11.84-47.35-2.66 1.61-28.6 29.16-26.07 76 4.26 26.06 29.17-2.89 51.29-7.82 7 7 7.82-2.88 51.29-29.2 26.05-75.95-4.26zm27.29 25l74 4.15 25.78-23 2.76-49.32-7.91-8.87 8.85-7.92 2.73-48.58-23.76-26.56-72.74-4.08-26.31 23.51-1.3 23.18 39.21 2.21.5-8.88 9.1-8.15 27.13 1.52 7.91 8.86-1.07 19.23-8.6 7.68-18.49-1-1.78 31.56 18.51 1 7.89 9.1-1 18.49-9.1 8.14-27.17-1.55-8.13-9.12.28-5.18-39.2-2.2-1.12 20zm-17.16-29.16l.62-11.1 28.11 1.57-.19 3.45 10 11.2 33.77 1.89 11.48-10.2 1.4-24.93-10.24-11.46-16.28-.91 1.12-20.69 16.27.91 11.46-10.24 1.4-24.9-10.19-11.47-33.79-1.9-11.15 10.02-.38 6.91-28.42-1.6.8-14.3 24.22-21.65 66.58 3.73 21.41 24-2.38 42.41-12.23 10.91 10.94 12.23-2.38 42.42-23.7 21.18-67.07-3.76zm154.79-81.12l10.75-48 128.44 28.84-7.3 32.54-80.89 124.87-48.68-10.92 77.68-119.76-40-9-2.22 9.88zm34.84 3.76l2.27-10.12 49.65 11.14-77.76 119.75 39 8.76 80-121.79 6.17-27.5-120.25-27-9 40zM515 96.64l6.6-29.4 109.65 24.59-4.33 19.28-77.08 119.15-28-6.27 77.09-119.14-62.37-14.01-2.28 10.13z" fill="#fff"/></svg>