<svg viewBox="0 0 671.71 319.13" xmlns="http://www.w3.org/2000/svg"><path d="M128.19 319.13H39.38v-1.9a44.41 44.41 0 1 1 88.81 0z" fill="#66a6ff"/><rect fill="#0f0f0f" height="115.97" rx="5.95" width="185.73" x="341.84" y="153.46"/><rect fill="#474747" height="110.53" rx="4.55" width="180.03" x="344.69" y="156.18"/><rect fill="#46cc66" height="4.56" rx="2.28" width="141.29" x="358.93" y="173.27"/><rect fill="#46cc66" height="4.56" rx="2.28" width="107.11" x="358.93" y="210.31"/><rect fill="#4ca4e0" height="4.56" rx="2.28" width="54.69" x="358.93" y="185.62"/><rect fill="#dbcc46" height="4.56" rx="2.28" width="86.6" x="358.93" y="197.96"/><rect fill="#dbcc46" height="4.56" rx="2.28" width="55.83" x="358.93" y="235"/><rect fill="#dbcc46" height="4.56" rx="2.28" width="70.65" x="358.93" y="247.34"/><rect fill="#4ca4e0" height="4.56" rx="2.28" width="50.14" x="358.93" y="222.65"/><rect fill="#0f0f0f" height="151.55" rx="7.78" transform="rotate(-90 247.83 147.64)" width="242.7" x="126.48" y="71.86"/><rect fill="#474747" height="145.85" rx="6.05" transform="rotate(-90 247.83 147.64)" width="235.87" x="129.9" y="74.71"/><rect fill="#46cc66" height="4.56" rx="2.28" width="97.99" x="195.99" y="49.07"/><rect fill="#46cc66" height="4.56" rx="2.28" width="74.29" x="195.99" y="86.11"/><rect fill="#4ca4e0" height="4.56" rx="2.28" width="37.93" x="195.99" y="61.42"/><g fill="#dbcc46"><rect height="4.56" rx="2.28" width="60.06" x="195.99" y="73.76"/><rect height="4.56" rx="2.28" width="38.72" x="195.99" y="110.79"/><rect height="4.56" rx="2.28" width="49" x="195.99" y="123.14"/><rect height="4.56" rx="2.28" width="49" x="195.99" y="159.98"/></g><rect fill="#4ca4e0" height="4.56" rx="2.28" width="34.77" x="195.99" y="98.45"/><rect fill="#4ca4e0" height="4.56" rx="2.28" width="34.77" x="195.99" y="169.1"/><rect fill="#4ca4e0" height="4.56" rx="2.28" width="34.77" x="195.99" y="150.87"/><rect fill="#46cc66" height="4.56" rx="2.28" width="38.72" x="195.99" y="232.72"/><rect fill="#dbcc46" height="4.56" rx="2.28" width="49" x="195.99" y="245.06"/><rect fill="#4ca4e0" height="4.56" rx="2.28" width="34.77" x="195.99" y="220.37"/><path d="M670 319.13H29.63a1.71 1.71 0 0 1 0-3.42H670a1.71 1.71 0 0 1 0 3.42z" fill="#1e1e1e"/><path d="M568.3 295.2h84.32v21.65H568.3z" fill="#9e9e9e"/><path d="M652.62 313.43h-79.31a2.53 2.53 0 0 1-2.53-2.53v-9.76a2.53 2.53 0 0 1 2.53-2.53h79.31z" fill="#66a6ff"/><path d="M654.33 319.13h-85.78a3.66 3.66 0 0 1-3.66-3.66v-18.89a3.66 3.66 0 0 1 3.66-3.66h85.78a1.71 1.71 0 1 1 0 3.42H572a3.66 3.66 0 0 0-3.7 3.66v12a3.66 3.66 0 0 0 3.66 3.66h82.36a1.71 1.71 0 1 1 0 3.42z" fill="#1e1e1e"/><path d="M583.105 272.65l56.318-.491.189 21.649-56.318.491a2.77 2.77 0 0 1-2.794-2.745l-.14-16.1a2.77 2.77 0 0 1 2.745-2.804z" fill="#acacac"/><path d="M639.55 290.38l-53.5.47a3.3 3.3 0 0 1-3.33-3.27l-.07-8.21a3.3 3.3 0 0 1 3.27-3.33l53.5-.47.13 14.74z" fill="#66a6ff"/><path d="M641.83 296.06l-61.12.53c-1.44 0-2.63-1.62-2.64-3.64l-.16-18.88c0-2 1.14-3.67 2.58-3.69l61.12-.53c.67 0 1.22.75 1.23 1.7s-.53 1.71-1.2 1.72l-58.68.51c-1.44 0-2.6 1.66-2.58 3.69l.11 12c0 2 1.2 3.65 2.64 3.64l58.68-.51c.67 0 1.22.75 1.23 1.7s-.53 1.76-1.21 1.76z" fill="#1e1e1e"/><rect fill="#66a6ff" height="19.37" rx="9.69" width="31.9" x="450.65" y="299.75"/><path d="M472.73 299.75H460.2a9.69 9.69 0 1 0 0 19.37h12.53a9.69 9.69 0 0 0 0-19.37zm0 16H460.2a6.27 6.27 0 0 1 0-12.53h4.56v5.7h3.42v-5.7h4.56a6.27 6.27 0 0 1 0 12.53z" fill="#1e1e1e"/><path d="M250.68 308.87h169.21v7.41H250.68z" fill="#66a6ff"/><path d="M250.68 308.87h169.21v7.41H250.68z" fill="none" stroke="#1e1e1e" stroke-miterlimit="10" stroke-width="3.69"/><path d="M127.55 319.13H38.74v-1.9a44.41 44.41 0 1 1 88.81 0zm-85-3.81h81.15a40.6 40.6 0 0 0-81.11 0z" fill="#1e1e1e"/><path d="M190.84 63.5c6.49-6.68 14.6-16.78 16.59-27.06a18.35 18.35 0 0 0 .24-7.5 19.19 19.19 0 0 0-.61-2.8C203.76 15.23 190 5.63 172 1.66c-15.16-3.34-35.35-2.44-46.55 10.08-8.76 9.8-11.38 26.43-6.84 43.4 4.08 15.21 13.08 26.81 23.51 30.27a23.14 23.14 0 0 0 2.6.68 16.57 16.57 0 0 0 4.51.59 23.91 23.91 0 0 0 2.56-.15c12.32-.92 24.9-9.89 34.11-18.26l1.09-1q2.01-1.86 3.85-3.77z" fill="#66a6ff"/><path d="M190.84 63.5c6.49-6.68 14.6-16.78 16.59-27.06a18.35 18.35 0 0 0 .24-7.5 19.19 19.19 0 0 0-.61-2.8C203.76 15.23 190 5.63 172 1.66c-15.16-3.34-35.35-2.44-46.55 10.08-8.76 9.8-11.38 26.43-6.84 43.4 4.08 15.21 13.08 26.81 23.51 30.27a23.14 23.14 0 0 0 2.6.68 16.57 16.57 0 0 0 4.51.59 23.91 23.91 0 0 0 2.56-.15c12.32-.92 24.9-9.89 34.11-18.26l1.09-1q2.01-1.86 3.85-3.77zm11.24-21.24c-2.86 6.29-7.67 13-13.78 19.29l-.17.17-.82.82-1.18 1.16-1.34 1.3-1 .9c-8.32 7.5-17.33 13.1-25.44 15.86a32.57 32.57 0 0 1-6.84 1.59 22.63 22.63 0 0 1-5.76-.3 7.59 7.59 0 0 1-3.75-2.14c-6.15-6.75 2.57-25 19-39.92 12.16-11 25.76-17.61 34.53-17.61 3.11 0 5.61.83 7.22 2.6a7.41 7.41 0 0 1 1.73 3.65 19 19 0 0 1-.06 5.16 30.88 30.88 0 0 1-2.35 7.47zm-80.37 12.06c-4.27-15.95-1.92-31.45 6.14-40.46 7-7.86 18.09-10.69 28.95-10.69a68.32 68.32 0 0 1 14.52 1.6c13.09 2.88 24 9 29.47 16.26-9.44-3.23-26.35 3.58-41.88 17.6-16.15 14.59-24.63 31.42-21.32 40.93-7.01-4.82-12.85-13.93-15.88-25.24zM10.82 123.71a10.82 10.82 0 1 1 10.82-10.82 10.84 10.84 0 0 1-10.82 10.82zm0-18.23a7.41 7.41 0 1 0 7.41 7.41 7.42 7.42 0 0 0-7.41-7.41z" fill="#1e1e1e"/><circle cx="10.82" cy="112.88" fill="#66a6ff" r="7.98"/><path d="M18.23 108.33a1.71 1.71 0 0 1-1.12-3L128.78 8.47a1.71 1.71 0 1 1 2.22 2.58L19.35 107.91a1.7 1.7 0 0 1-1.12.42zm53.56 169.78A1.71 1.71 0 0 1 70.2 277L8.67 123.2a1.71 1.71 0 1 1 3.17-1.27l61.53 153.83a1.71 1.71 0 0 1-1.59 2.34zM175.38 55.94c-6.62 5.08-15.15 5.12-19 .07s-1.64-13.28 5-18.37 15.15-5.12 19-.07 1.62 13.29-5 18.37zm-11.83-15.4c-4.55 3.46-6.06 9.11-3.41 12.56s8.49 3.43 13-.05 6.06-9.12 3.41-12.57-8.47-3.42-13 .06z" fill="#1e1e1e"/><ellipse cx="168.35" cy="46.8" fill="#dbcc46" rx="11.15" ry="8.5" transform="rotate(-37.53 168.352 46.79)"/></svg>