<svg xmlns="http://www.w3.org/2000/svg" viewBox="0 0 556.68 287.16"><defs><style>.cls-10,.cls-12,.cls-13,.cls-6{fill:none}.cls-10,.cls-12,.cls-13,.cls-9{stroke:#0f0f0f}.cls-10,.cls-9{stroke-linecap:round;stroke-linejoin:round}.cls-2{fill:#9e6c4b}.cls-4{fill:#303030}.cls-5{fill:#fff}.cls-6{stroke:#fff}.cls-12,.cls-13,.cls-6{stroke-miterlimit:10}.cls-6{stroke-width:.54px}.cls-9{fill:#d2e5fc}.cls-10,.cls-9{stroke-width:3.31px}.cls-12{stroke-width:3px}.cls-13{stroke-width:2px}.cls-15{fill:#0f0f0f}</style></defs><path stroke-width="3.25" stroke-linecap="round" stroke-linejoin="round" stroke="#0f0f0f" fill="none" d="M1.63 285h540"/><g id="Mah_Nigga" data-name="Mah Nigga"><path id="body" class="cls-2" d="M339.25 244.22c-8.13-4.32-30.18-11-42.44-14.71a22.86 22.86 0 0 1-7.32-3.61 24.3 24.3 0 0 1-9.49-18.84 46.06 46.06 0 0 1-44.43-1.18 21 21 0 0 1-.83 7.12c-1 3.18-2.72 5.1-5.7 8.34a49.61 49.61 0 0 1-8 7.08c-10.61 7.28-31.95 10.21-42.49 15.82-7.88 4.19-17.32 13.91-21.9 39.11h204.47c-4.49-24.9-13.76-34.82-21.87-39.13z"/><ellipse id="face" class="cls-2" cx="258.91" cy="151.01" rx="52.65" ry="61.19"/><path d="M337.64 135.85l-.26-.47a5.68 5.68 0 0 0-.1-4.38 5.56 5.56 0 0 0-.27-6 5 5 0 0 0-.67-3.69 5.13 5.13 0 0 0-1.24-6.31c1.05-3.4 1.57-7.17.54-10.45s-4.13-5-7.1-6.51q-.36-.71-.74-1.41a9.44 9.44 0 0 0-1.15-2.71 5.33 5.33 0 0 0-1.24-7.06l-1.75-1.27a8.21 8.21 0 0 0-3-4.15c.07-.31.15-.61.21-.94.48-2.55-.65-5.18-2.94-5.91-1.49-.48-3-.88-4.48-1.25-.48-1.95-1.84-3.54-3.91-3.28l-4.67.58c.17-2.7-1.36-5.75-4.08-5.35l-.37.06c.22-3.66-3.44-6.08-6.34-4.39l-1.28.74c-1.36-1.5-3.11-3.12-3-2-.18-2.44-1.79-5-4.21-4.81-3.67.31-5.81-2.55-9.37-.47-1.69 1-3.36 2-5 3.13-.57-2.52-2.62-5.17-5.21-3.94-.34.16-.67.3-1 .44-1.52-2.18-4.32-3-6.29-.62q-.25.62-.43 0a3.92 3.92 0 0 0-5.11-.75 33 33 0 0 0-3.35 2.22 3.84 3.84 0 0 0-4.2 0l-5.13 3.66a7.88 7.88 0 0 0-2.26-1.79A6.56 6.56 0 0 0 234 56c-1.25.22-3.3 2.32-4.41 2.15-1.95-.29-4.21 2.15-4.23 4.4h-.15a4.47 4.47 0 0 0-1.65-.36 4.68 4.68 0 0 0-2.59.41 4.9 4.9 0 0 0-3.09 4.63c0-.27-1.11-.39-1.36-.57-2.43-1.74-5-.07-5.95 2.43-1.73-.85-3.8-.47-4.88 2a14.4 14.4 0 0 0-.56 1.55c-.54 0-1.09 0-1.69-.09-1.83-.18-3.28 1.36-3.9 3.18a4.94 4.94 0 0 0-3.19 6l.33 1.07a13.34 13.34 0 0 1-2.58.21c-3.67 0-5 4.45-3.4 7.43-.59.22-1.19.43-1.8.63a4.8 4.8 0 0 0-3.06 4.5 5.06 5.06 0 0 0-.84 6.24c-.67.66-1.36 1.3-2.1 1.89a5.34 5.34 0 0 0-1.64 6.34l-1.7 2.45c-1.7 2.46-1.47 5.35.41 7.08a5.14 5.14 0 0 0 .42 5.28 55.71 55.71 0 0 0-3.79 5.77c-1.42 2.5 0 6.3 2.41 7.09l-.06.15a9.33 9.33 0 0 1-1.23 1.61c-1.47 1.78-1.77 5.06 0 6.8a12.35 12.35 0 0 0 3 2.22 7.9 7.9 0 0 0 2.74 5.44 6.62 6.62 0 0 0 .87.59 18.68 18.68 0 0 1-1.52 4.24c-1.93 3.91 1.14 7.47 4.27 7a4.92 4.92 0 0 0 2.61 2.38l.14 3.86c.12 3.41 3.71 6.07 6.28 4.29.14 3 2.35 4.77 4.51 4.63a4.38 4.38 0 0 0 4.53 3.18l1.08 2.93c1.07 2.9 3.55 4.48 6.19 2.87h.08a112.2 112.2 0 0 0 8.3 8l.85.75c2.78 2.38 6.08-.77 6.32-4.06a83.36 83.36 0 0 0 55.26 2c.24 2.17 1.58 4.22 4 4.39l6.24.43c1.66.11 3.13-1.21 3.83-2.85a4.27 4.27 0 0 0 4.31-2.36l2.05-4.55a5.88 5.88 0 0 0 2.07.15 6.77 6.77 0 0 0 5.65-4.71 6.36 6.36 0 0 0 2.35-1.72 11.46 11.46 0 0 0 1.26-2.1c.13-.21.23-.38.31-.54 2.36 1.25 5.13-.69 5.72-3.44a4.85 4.85 0 0 0 4-6.09c-.4-1.43-1-2.71-.19-3.73.68-.85 3-1.33 4-2.1a15.2 15.2 0 0 0 4.44-6.82A41 41 0 0 0 335 152c.38-2.89.07-8.44 2-10.31a5.36 5.36 0 0 0 .64-5.84z"/><ellipse id="face-2" data-name="face" class="cls-2" cx="258.91" cy="151.01" rx="52.65" ry="61.19"/><path d="M339.25 244.22c-8.13-4.32-30.18-11-42.44-14.71a23.2 23.2 0 0 1-6.61-3.12c-7.53 5.28-18.86 8.63-31.55 8.63-13.74 0-25.89-3.94-33.33-10a45 45 0 0 1-4.26 3.38c-10.61 7.28-31.95 10.21-42.49 15.82-7.88 4.19-17.32 13.91-21.9 39.11h204.47c-4.51-24.88-13.78-34.8-21.89-39.11z" fill="#f1c40f"/><ellipse id="eyes" class="cls-4" cx="234.33" cy="147.79" rx="5.4" ry="5.14"/><ellipse id="eyes-2" data-name="eyes" class="cls-4" cx="283.39" cy="147.79" rx="5.4" ry="5.14"/><path id="right_ear" data-name="right ear" class="cls-2" d="M216.19 157.17c0 4.86-3.17 10.67-7.43 10.91-4.77.27-7.91-6.6-8.42-7.71s-3.83-8.36 0-12.32c2.25-2.33 5.91-2.51 8.42-1.8 4.79 1.36 7.42 6.52 7.43 10.92z"/><path id="left_ear" data-name="left ear" class="cls-2" d="M303.81 157.17c0 4.86 3.17 10.67 7.43 10.91 4.77.27 7.91-6.6 8.42-7.71s3.83-8.36 0-12.32c-2.25-2.33-5.91-2.51-8.42-1.8-4.8 1.36-7.42 6.52-7.43 10.92z"/><path d="M312.37 130.47v-.06c1.09-4.74-.11-9.85-4.1-12.62a27.66 27.66 0 0 0-.59-5.32 5.67 5.67 0 0 0-3.16-3.78 11.24 11.24 0 0 0-1.82-3.63 13.72 13.72 0 0 0-3.31-3.25c-1.2-.82-4.08-1.5-4.89-2.72-.32-.48-.07-3.74-.72-4.86a7.8 7.8 0 0 0-2.84-2.75c-2.26-1.22-7.89.25-8.91-2-1.14-2.53-4-3.05-6.37-2.69h-.07a7.16 7.16 0 0 0-10.51-2.29c-.46.32-1.07 1-1.63 1.44a5.29 5.29 0 0 0-1.41-.52v-.12c-1.35-5.76-9.34-5.37-10.88 0-.77 2.69-11.42 4.77-13.64 5.55-5.36 1.89-10.71 4-16.26 5.26-2.75.6-4.77 4.12-4 6.94-3.18 1-6.28 2.45-8.17 4.92a8.81 8.81 0 0 0-1.52 3.11c-4.11.08-7 5.6-4.58 9.25-.07.2-.13.4-.19.61a16.51 16.51 0 0 0-3.5 2.72 13.52 13.52 0 0 0-2.2 2.8c-.33.59-2.49 4.41-1 8.25 1.13 2.82 3.63 4.07 5.36 4.94 1.93 1 6.79 3.4 10.37.81s2.92-8.19 2.89-8.42a6.43 6.43 0 0 0 1.72-4.72c.82.24 1.65.47 2.49.68a5.33 5.33 0 0 0 6.79-4.54c4.5.28 8-6.08 4.29-10.07l-.83-.9.15-.11c1.89 2.11 5 3 7.25 1.32.43 5.58 9.65 6.32 11.1.45 1.35 1 2.72 2.07 4.13 3.05 2.91 2 7.56.06 8.28-3.5.16-.81.36-1.6.54-2.4 0 .2.07.4.1.61.8 5.12 7.11 5.22 9.83 1.94a6.32 6.32 0 0 0 6.19-2.24c2.31.74 4.93.29 6.29-2.15a30.61 30.61 0 0 0 4.64 3c0 .21.11.66.2 1.47a8.33 8.33 0 0 0 1 3.2 6.71 6.71 0 0 0 3.47 2.89l.07 1.51.3 6.2a5.87 5.87 0 0 0 5.64 5.85c.64 0 1.24.07 1.84.14a4.86 4.86 0 0 0 .59 1c0 2.36 0 4.73.06 7.1.09 4.31 4.9 7.46 8.62 5.05 6.16-3.87 6.17-10.96 2.9-16.4z"/><g id="earphone"><ellipse class="cls-5" cx="206.26" cy="159.17" rx="3.19" ry="4.4"/><ellipse class="cls-5" cx="312.65" cy="159.17" rx="3.19" ry="4.4"/><path class="cls-5" d="M207.76 159.63h1.7V171a.85.85 0 0 1-.85.85.85.85 0 0 1-.85-.85v-11.37zM309.46 159.63h1.7V171a.85.85 0 0 1-.85.85.85.85 0 0 1-.85-.85v-11.37z"/><path class="cls-6" d="M208.6 171.48c-1.27 23.71 5 37.7 11.45 46.24 8.23 10.93 19 16 31.53 34.62a124.29 124.29 0 0 1 9.19 16.16M310.33 171.58c2.78 21.76-2.19 34.84-7.05 42.68-7.66 12.34-18 16.38-31.45 35.42a135.38 135.38 0 0 0-11.05 18.62"/><path d="M260.81 267.84c.24 2.29.42 4.73.51 7.32s.08 5.23 0 7.61" stroke-width="1.09" stroke-miterlimit="10" stroke="#fff" fill="none"/></g></g><rect x="164.63" y="182" width="188" height="101" rx="13.42" ry="13.42" fill="#9e9e9e"/><path class="cls-5" d="M259 218.73a14.14 14.14 0 1 0 14.18 14.14A14.16 14.16 0 0 0 259 218.73zm-10.35 15c-.55 0-1-1.23-1-2.75s.45-2.75 1-2.75 1 1.23 1 2.75-.43 2.72-.99 2.72zm6.13 1.07c-.77 0-1.39-1.71-1.39-3.82s.62-3.82 1.39-3.82 1.39 1.71 1.39 3.82-.61 3.79-1.38 3.79z"/><path class="cls-9" d="M419.13 93.5h96v192h-96z"/><path class="cls-10" d="M419.13 114.47l51 .03M419.13 142.65l21-.15M457.13 142.5h39M419.13 152.92l92 1.58M419.13 163.57l38-.07M419.13 194.84l58-.34M515.13 177.1l-19 .4M515.13 209.97l-48-.47M448.13 209.5h-15M419.13 235.55l38-.05M491.13 235.5h9M419.13 254.2l55 .3M515.13 254.2l-15 .3M419.13 268.5h22"/><path class="cls-9" d="M491 162.52l-.32-1.74a38.78 38.78 0 0 0-5.78-14.45c-9.75-14.66-26.9-17.74-31.95-18.33l.18-3 62.23.27.22.07a65.08 65.08 0 0 1 25.59 15.08 64.05 64.05 0 0 1 12.29 16.38l1.57 3-3.27-.84a100 100 0 0 0-59.11 3zM441.33 257.14a100 100 0 0 0-59.11-3l-3.27.84 1.57-3a64.05 64.05 0 0 1 12.29-16.38 65.08 65.08 0 0 1 25.59-15.08l.22-.07 62.23-.27.18 3c-5 .6-22.21 3.68-31.93 18.34a38.78 38.78 0 0 0-5.78 14.48l-.32 1.74z"/><path d="M58.63 253h30v23.62a4.38 4.38 0 0 1-4.39 4.38H63a4.38 4.38 0 0 1-4.38-4.38V253h.01z" fill="#a87d4f"/><path class="cls-12" d="M90.28 250.76c.45-.12 6.71-1.69 9.21 1.45 1 1.22 1 3.08 1 6.79s0 5.52-1 6.79c-2.38 3.12-8.12 2.06-8.73 1.94M57.13 241.5h33v34.58a6.42 6.42 0 0 1-6.42 6.42H63.55a6.42 6.42 0 0 1-6.42-6.42V241.5z"/><path class="cls-13" d="M72.89 227.62a18.8 18.8 0 0 1-1.09-5.45c-.12-2.52-.21-4.45 1.09-6 1.16-1.38 3.5-2.54 5.45-1.64a3.68 3.68 0 0 1 2.18 3.27c0 1.47-1.11 3.18-2.73 3.27a3.09 3.09 0 0 1-2.73-1.64M79.55 233a18.8 18.8 0 0 1 1.08-5.45c.85-2.37 1.51-4.19 3.31-5.12 1.6-.83 4.21-1 5.66.58a3.68 3.68 0 0 1 .76 3.86c-.59 1.35-2.24 2.51-3.77 2a3.09 3.09 0 0 1-1.89-2.56M66.89 232.56a8.94 8.94 0 0 0 .55-3.82c-.06-.75-.36-4.48-3.27-6-.32-.16-2.87-1.45-4.91 0a3.87 3.87 0 0 0-1.64 3.82c.51 2.27 3.58 3.59 4.91 2.73a2.54 2.54 0 0 0 .55-3.27 2.75 2.75 0 0 0-2.18-1.09"/><circle cx="78.13" cy="46" r="44.5" fill="#a4a4ed" stroke-width="3" stroke-miterlimit="10" stroke="#0f0f0f"/><rect class="cls-15" x="77.33" y="7.47" width="3" height="7" rx="1.5" ry="1.5" transform="rotate(-2.94 78.875 10.993)"/><rect class="cls-15" x="99.89" y="20.23" width="7" height="3" rx="1.5" ry="1.5" transform="rotate(-47.94 103.4 21.727)"/><rect class="cls-15" x="109.66" y="45.2" width="7" height="3" rx="1.5" ry="1.5" transform="rotate(-2.94 113.247 46.774)"/><rect class="cls-15" x="100.9" y="67.77" width="3" height="7" rx="1.5" ry="1.5" transform="rotate(-47.94 102.4 71.266)"/><rect class="cls-15" x="75.92" y="77.53" width="3" height="7" rx="1.5" ry="1.5" transform="rotate(-2.94 77.465 81.145)"/><rect class="cls-15" x="49.36" y="68.77" width="7" height="3" rx="1.5" ry="1.5" transform="rotate(-47.94 52.855 70.277)"/><rect class="cls-15" x="39.59" y="43.8" width="7" height="3" rx="1.5" ry="1.5" transform="rotate(-2.94 43.094 45.364)"/><rect class="cls-15" x="52.35" y="17.23" width="3" height="7" rx="1.5" ry="1.5" transform="rotate(-47.94 53.855 20.738)"/><path d="M79.13 24.5l-1 21 12-36" fill="#a4a4ed" stroke-width="3" stroke-linecap="round" stroke-linejoin="round" stroke="#0f0f0f"/><path d="M326.13 61.5c7.1-6.91 10.54-13.15 12.36-17.76.75-1.89 1.51-4.24 3.64-5.24 4.7-2.18 13.28 1.13 14 6a5.53 5.53 0 0 1-2 5c-2.48 1.89-6.18.62-8 0-9.92-3.4-21.45-16.81-18-23 2.79-5 14.49-3.78 21.25-1.37 3.19 1.14 8 2.86 8.75 6.37.66 3.25-2.86 4.81-9 14-3.84 5.75-3.95 7.35-6 8-6.09 1.92-16.6-8.59-15-12 3-6.33 49.13 8.9 50 6 .5-1.66-14.86-5.79-16-15-.42-3.42 1.33-5.83 0-7-2.94-2.6-13.18 7.75-17 5-2.27-1.63-1.61-7.41 1-11 3-4.19 9.06-5.91 15-4" stroke-width="3.31" stroke-miterlimit="10" stroke="#0f0f0f" fill="none"/></svg>
