<svg viewBox="0 0 565.96 456.97" xmlns="http://www.w3.org/2000/svg"><path d="M35.9 224.33c-29.82 86.31-51.85 150.06-21 193 48 66.81 189.6 35.27 321 6 124.35-27.7 202.84-45.18 222-103 26.81-80.9-83.21-178.39-120-211C391.28 68 284.08-27 181.9 7.33c-80.34 26.99-112 118.6-146 217z" fill="#66a6ff"/><path d="M10.9 356.33h540" fill="none" stroke="#0f0f0f" stroke-linecap="round" stroke-linejoin="round" stroke-width="3.25"/><path d="M348.53 315.56c-8.13-4.32-30.18-11-42.44-14.71a22.86 22.86 0 0 1-7.32-3.61 24.3 24.3 0 0 1-9.46-18.84 46.06 46.06 0 0 1-44.43-1.18 21 21 0 0 1-.83 7.12c-1 3.18-2.72 5.1-5.7 8.34a49.61 49.61 0 0 1-8 7.08c-10.62 7.24-31.96 10.24-42.5 15.82-7.88 4.19-17.32 13.91-21.9 39.11h204.47c-4.52-24.91-13.78-34.83-21.89-39.13z" fill="#9e6c4b"/><ellipse cx="268.19" cy="222.34" fill="#9e6c4b" rx="52.65" ry="61.19"/><path d="M346.92 207.18l-.26-.47a5.68 5.68 0 0 0-.1-4.38 5.56 5.56 0 0 0-.27-6 5 5 0 0 0-.67-3.69 5.13 5.13 0 0 0-1.24-6.32c1.05-3.4 1.57-7.17.54-10.45s-4.13-5-7.1-6.51q-.36-.71-.74-1.41a9.44 9.44 0 0 0-1.15-2.71 5.33 5.33 0 0 0-1.24-7.06l-1.75-1.27a8.21 8.21 0 0 0-3-4.15c.07-.31.15-.61.21-.94.48-2.55-.65-5.18-2.94-5.91-1.49-.48-3-.88-4.48-1.25-.48-1.95-1.84-3.54-3.91-3.28l-4.67.58c.17-2.7-1.36-5.75-4.08-5.35l-.37.06c.22-3.66-3.44-6.08-6.34-4.39l-1.28.74c-1.36-1.5-3.11-3.12-3-2-.18-2.44-1.79-5-4.21-4.81-3.67.31-5.81-2.55-9.37-.47-1.69 1-3.36 2-5 3.13-.57-2.52-2.62-5.17-5.21-3.94-.34.16-.67.3-1 .44-1.52-2.18-4.32-3-6.29-.62q-.25.62-.43 0a3.92 3.92 0 0 0-5.11-.75 33 33 0 0 0-3.35 2.22 3.84 3.84 0 0 0-4.2 0l-5.13 3.66a7.88 7.88 0 0 0-2.26-1.79 6.56 6.56 0 0 0-4.26-.68c-1.25.22-3.3 2.32-4.41 2.15-1.95-.29-4.21 2.15-4.23 4.4h-.15a4.47 4.47 0 0 0-1.65-.36 4.68 4.68 0 0 0-2.59.41 4.9 4.9 0 0 0-3.09 4.63c0-.27-1.11-.39-1.36-.57-2.43-1.74-5-.07-5.95 2.43-1.73-.85-3.8-.47-4.88 2a14.4 14.4 0 0 0-.56 1.55c-.54 0-1.09 0-1.69-.09-1.83-.18-3.28 1.36-3.9 3.18a4.94 4.94 0 0 0-3.19 6l.33 1.07a13.34 13.34 0 0 1-2.58.21c-3.67 0-5 4.45-3.4 7.43-.59.22-1.19.43-1.8.63a4.8 4.8 0 0 0-3.06 4.5 5.06 5.06 0 0 0-.84 6.24c-.67.66-1.36 1.3-2.1 1.89a5.34 5.34 0 0 0-1.64 6.34l-1.7 2.45c-1.7 2.46-1.47 5.35.41 7.08a5.14 5.14 0 0 0 .42 5.28 55.71 55.71 0 0 0-3.79 5.77c-1.42 2.5 0 6.3 2.41 7.09l-.06.15a9.33 9.33 0 0 1-1.23 1.61c-1.47 1.78-1.77 5.06 0 6.8a12.35 12.35 0 0 0 3 2.22 7.9 7.9 0 0 0 2.74 5.44 6.62 6.62 0 0 0 .87.59 18.68 18.68 0 0 1-1.52 4.24c-1.93 3.91 1.14 7.47 4.27 7a4.92 4.92 0 0 0 2.61 2.38l.14 3.86c.12 3.41 3.71 6.07 6.28 4.29.14 3 2.35 4.77 4.51 4.63a4.38 4.38 0 0 0 4.53 3.18l1.08 2.93c1.07 2.9 3.55 4.48 6.19 2.87h.08a112.2 112.2 0 0 0 8.3 8l.85.75c2.78 2.38 6.08-.77 6.32-4.06a83.36 83.36 0 0 0 55.26 2c.24 2.17 1.58 4.22 4 4.39l6.24.43c1.66.11 3.13-1.21 3.83-2.85a4.27 4.27 0 0 0 4.31-2.36l2.05-4.55a5.88 5.88 0 0 0 2.07.15 6.77 6.77 0 0 0 5.65-4.71 6.36 6.36 0 0 0 2.35-1.72 11.46 11.46 0 0 0 1.26-2.1c.13-.21.23-.38.31-.54 2.36 1.25 5.13-.69 5.72-3.44a4.85 4.85 0 0 0 4-6.09c-.4-1.43-1-2.71-.19-3.73.68-.85 3-1.33 4-2.1a15.2 15.2 0 0 0 4.44-6.82 41 41 0 0 0 1.85-8.67c.38-2.89.07-8.44 2-10.31a5.36 5.36 0 0 0 .54-5.8z"/><ellipse cx="268.19" cy="222.34" fill="#9e6c4b" rx="52.65" ry="61.19"/><path d="M348.53 315.56c-8.13-4.32-30.18-11-42.44-14.71a23.2 23.2 0 0 1-6.61-3.12c-7.53 5.28-18.86 8.63-31.55 8.63-13.74 0-25.89-3.94-33.33-10a45 45 0 0 1-4.26 3.38c-10.61 7.26-31.95 10.26-42.49 15.84-7.88 4.19-17.32 13.91-21.9 39.11h204.47c-4.52-24.91-13.78-34.83-21.89-39.13z" fill="#f1c40f"/><ellipse cx="243.61" cy="219.12" fill="#303030" rx="5.4" ry="5.14"/><ellipse cx="292.66" cy="219.12" fill="#303030" rx="5.4" ry="5.14"/><path d="M225.47 228.5c0 4.86-3.17 10.67-7.43 10.91-4.77.27-7.91-6.6-8.42-7.71s-3.83-8.36 0-12.32c2.25-2.33 5.91-2.51 8.42-1.8 4.79 1.36 7.42 6.53 7.43 10.92zm87.61 0c0 4.86 3.17 10.67 7.43 10.91 4.77.27 7.91-6.6 8.42-7.71s3.83-8.36 0-12.32c-2.25-2.33-5.91-2.51-8.42-1.8-4.79 1.36-7.42 6.53-7.43 10.92z" fill="#9e6c4b"/><path d="M321.65 201.81v-.06c1.09-4.74-.11-9.85-4.1-12.62a27.66 27.66 0 0 0-.59-5.32 5.67 5.67 0 0 0-3.16-3.81 11.24 11.24 0 0 0-1.82-3.63 13.72 13.72 0 0 0-3.31-3.25c-1.2-.82-4.08-1.5-4.89-2.72-.32-.48-.07-3.74-.72-4.86a7.8 7.8 0 0 0-2.84-2.75c-2.26-1.22-7.89.25-8.91-2-1.14-2.53-4-3.05-6.37-2.69h-.07a7.16 7.16 0 0 0-10.51-2.29c-.46.32-1.07 1-1.63 1.44a5.29 5.29 0 0 0-1.41-.52v-.12c-1.35-5.76-9.34-5.37-10.88 0-.77 2.69-11.42 4.77-13.64 5.55-5.36 1.89-10.71 4-16.26 5.26-2.75.6-4.77 4.12-4 6.94-3.18 1-6.28 2.45-8.17 4.92a8.81 8.81 0 0 0-1.52 3.11c-4.11.08-7 5.6-4.58 9.25-.07.2-.13.4-.19.61a16.51 16.51 0 0 0-3.5 2.72 13.52 13.52 0 0 0-2.2 2.8c-.33.59-2.49 4.41-1 8.25 1.13 2.82 3.63 4.07 5.36 4.94 1.93 1 6.79 3.4 10.37.81s2.92-8.19 2.89-8.42a6.43 6.43 0 0 0 1.72-4.72c.82.24 1.65.47 2.49.68a5.33 5.33 0 0 0 6.79-4.51c4.5.28 8-6.08 4.29-10.07l-.83-.9.15-.11c1.89 2.11 5 3 7.25 1.32.43 5.58 9.65 6.32 11.1.45 1.35 1 2.72 2.07 4.13 3.05 2.91 2 7.56.06 8.28-3.5.16-.81.36-1.6.54-2.4 0 .2.07.4.1.61.8 5.12 7.11 5.22 9.83 1.94A6.32 6.32 0 0 0 286 183c2.31.74 4.93.29 6.29-2.15a30.61 30.61 0 0 0 4.64 3c0 .21.11.66.2 1.47a8.33 8.33 0 0 0 1 3.2 6.71 6.71 0 0 0 3.47 2.89l.07 1.51.3 6.2a5.87 5.87 0 0 0 5.64 5.85c.64 0 1.24.07 1.84.14a4.86 4.86 0 0 0 .59 1c0 2.36 0 4.73.06 7.1.09 4.31 4.9 7.46 8.62 5.05 6.19-3.96 6.19-11.02 2.93-16.45z"/><ellipse cx="215.54" cy="230.5" fill="#fff" rx="3.19" ry="4.4"/><ellipse cx="321.92" cy="230.5" fill="#fff" rx="3.19" ry="4.4"/><path d="M217 231h1.7v11.39a.85.85 0 0 1-.85.85.85.85 0 0 1-.85-.85zm101.74 0h1.7v11.39a.85.85 0 0 1-.85.85.85.85 0 0 1-.85-.85z" fill="#fff"/><path d="M217.88 242.81c-1.27 23.71 5 37.7 11.45 46.24 8.23 10.93 19 16 31.53 34.62a124.29 124.29 0 0 1 9.19 16.16m49.56-96.92c2.78 21.76-2.19 34.84-7.05 42.68-7.66 12.34-18 16.38-31.45 35.42a135.38 135.38 0 0 0-11.05 18.62" fill="none" stroke="#fff" stroke-miterlimit="10" stroke-width=".54"/><path d="M270.08 339.17c.24 2.29.42 4.73.51 7.32s.08 5.23 0 7.61" fill="none" stroke="#fff" stroke-miterlimit="10" stroke-width="1.09"/><rect fill="#9e9e9e" height="101" rx="13.42" width="188" x="173.9" y="253.33"/><path d="M268.28 290.06a14.14 14.14 0 1 0 14.18 14.14 14.16 14.16 0 0 0-14.18-14.14zm-10.35 15c-.55 0-1-1.23-1-2.75s.45-2.75 1-2.75 1 1.23 1 2.75-.44 2.69-.99 2.69zm6.13 1.07c-.77 0-1.39-1.71-1.39-3.82s.62-3.82 1.39-3.82 1.39 1.71 1.39 3.82-.61 3.8-1.38 3.8z" fill="#fff"/><path d="M428.4 164.83h96v192h-96z" fill="#d2e5fc" stroke="#0f0f0f" stroke-linecap="round" stroke-linejoin="round" stroke-width="3.31"/><path d="M428.4 185.8l51 .03m-51 28.16l21-.16m17 0h39m-77 10.43l92 1.57m-92 9.08l38-.08m-38 31.34l58-.34m38-17.4l-19 .4m19 32.48l-48-.48m-19 0h-15m-14 26.05l38-.05m34 0h9m-81 18.7l55 .3m41-.3l-15 .3m-81 14h22" fill="none" stroke="#0f0f0f" stroke-linecap="round" stroke-linejoin="round" stroke-width="3.31"/><path d="M500.25 233.85l-.32-1.74a38.78 38.78 0 0 0-5.78-14.45c-9.72-14.66-26.89-17.74-31.93-18.34l.18-3 62.23.27.22.07a65.08 65.08 0 0 1 25.59 15.08 64.05 64.05 0 0 1 12.29 16.38l1.57 3-3.27-.84a100 100 0 0 0-59.11 3zm-49.64 94.62a100 100 0 0 0-59.11-3l-3.27.84 1.57-3A64.05 64.05 0 0 1 402.08 307a65.08 65.08 0 0 1 25.59-15.08l.22-.07 62.23-.27.18 3c-5 .6-22.21 3.68-31.93 18.34a38.78 38.78 0 0 0-5.78 14.45l-.32 1.74z" fill="#d2e5fc" stroke="#0f0f0f" stroke-linecap="round" stroke-linejoin="round" stroke-width="3.31"/><path d="M67.9 324.33h30V348a4.38 4.38 0 0 1-4.38 4.38H72.28A4.38 4.38 0 0 1 67.9 348z" fill="#a87d4f"/><path d="M99.56 322.09c.45-.12 6.71-1.69 9.21 1.45 1 1.22 1 3.08 1 6.79s0 5.52-1 6.79c-2.38 3.12-8.12 2.06-8.73 1.94M66.4 312.83h33v34.58a6.42 6.42 0 0 1-6.4 6.42H72.83a6.42 6.42 0 0 1-6.42-6.42v-34.58z" fill="none" stroke="#0f0f0f" stroke-miterlimit="10" stroke-width="3"/><path d="M82.17 299a18.8 18.8 0 0 1-1.09-5.45c-.12-2.52-.21-4.45 1.09-6 1.16-1.38 3.5-2.54 5.45-1.64a3.68 3.68 0 0 1 2.18 3.27c0 1.47-1.11 3.18-2.73 3.27a3.09 3.09 0 0 1-2.73-1.64m4.48 13.5a18.8 18.8 0 0 1 1.08-5.45c.85-2.37 1.51-4.19 3.31-5.12 1.6-.83 4.21-1 5.66.58a3.68 3.68 0 0 1 .76 3.86c-.59 1.35-2.24 2.51-3.77 2A3.09 3.09 0 0 1 94 297.6m-17.83 6.29a8.94 8.94 0 0 0 .55-3.82c-.06-.75-.36-4.48-3.27-6-.32-.16-2.87-1.45-4.91 0a3.87 3.87 0 0 0-1.64 3.82c.51 2.27 3.58 3.59 4.91 2.73a2.54 2.54 0 0 0 .55-3.27 2.75 2.75 0 0 0-2.18-1.09" fill="none" stroke="#0f0f0f" stroke-miterlimit="10" stroke-width="2"/><circle cx="87.4" cy="117.33" fill="#a4a4ed" r="44.5" stroke="#0f0f0f" stroke-miterlimit="10" stroke-width="3"/><g fill="#0f0f0f"><rect height="7" rx="1.5" transform="rotate(-2.94 88.156 82.395)" width="3" x="86.6" y="78.8"/><rect height="3" rx="1.5" transform="rotate(-47.94 112.67 93.06)" width="7" x="109.17" y="91.56"/><rect height="3" rx="1.5" transform="rotate(-2.94 122.528 118.176)" width="7" x="118.93" y="116.53"/><rect height="7" rx="1.5" transform="rotate(-47.94 111.682 142.604)" width="3" x="110.18" y="139.1"/><rect height="7" rx="1.5" transform="rotate(-2.94 86.751 152.352)" width="3" x="85.2" y="148.86"/><rect height="3" rx="1.5" transform="rotate(-47.94 62.138 141.615)" width="7" x="58.64" y="140.11"/><rect height="3" rx="1.5" transform="rotate(-2.94 52.375 116.766)" width="7" x="48.87" y="115.13"/><rect height="7" rx="1.5" transform="rotate(-47.94 63.127 92.071)" width="3" x="61.63" y="88.57"/></g><path d="M88.4 95.83l-1 21 12-36" fill="#a4a4ed" stroke="#0f0f0f" stroke-linecap="round" stroke-linejoin="round" stroke-width="3"/><path d="M335.4 132.83c7.1-6.91 10.54-13.15 12.36-17.76.75-1.89 1.51-4.24 3.64-5.24 4.7-2.18 13.28 1.13 14 6a5.53 5.53 0 0 1-2 5c-2.48 1.89-6.18.62-8 0-9.92-3.4-21.45-16.81-18-23 2.79-5 14.49-3.78 21.25-1.37 3.19 1.14 8 2.86 8.75 6.37.66 3.25-2.86 4.81-9 14-3.84 5.75-3.95 7.35-6 8-6.09 1.92-16.6-8.59-15-12 3-6.33 49.13 8.9 50 6 .5-1.66-14.86-5.79-16-15-.42-3.42 1.33-5.83 0-7-2.94-2.6-13.18 7.75-17 5-2.27-1.63-1.61-7.41 1-11 3-4.19 9.06-5.91 15-4" fill="none" stroke="#0f0f0f" stroke-miterlimit="10" stroke-width="3.31"/></svg>