<svg viewBox="0 0 207.7 75.18" xmlns="http://www.w3.org/2000/svg"><g fill="#4289c8"><path d="M78 32.5h7.74l-.55 2h-5.52l-.58 2.16h4.85l-.54 2h-4.85l-1.06 3.94h-2.24zm11.28 6.9a6.07 6.07 0 0 1 .25-1.63l1.41-5.27h2.24L91.7 38a3.74 3.74 0 0 0-.16 1.1 1.6 1.6 0 0 0 1.77 1.69 2.29 2.29 0 0 0 1.69-.66 4.07 4.07 0 0 0 1-1.89l1.5-5.74h2.24l-1.63 6.06a6.54 6.54 0 0 1-1.57 3 4.63 4.63 0 0 1-3.46 1.25c-2.35.02-3.8-1.24-3.8-3.41zm17.91-4.84h-3.1l.55-2.06h8.43l-.55 2.06h-3.1l-2.18 8.11H105zm9.15 4.84a6 6 0 0 1 .25-1.63L118 32.5h2.24l-1.47 5.5a3.71 3.71 0 0 0-.16 1.1 1.6 1.6 0 0 0 1.77 1.69 2.29 2.29 0 0 0 1.66-.64 4.07 4.07 0 0 0 1-1.89l1.54-5.74h2.24l-1.63 6.06a6.56 6.56 0 0 1-1.57 3 4.63 4.63 0 0 1-3.46 1.25c-2.37 0-3.82-1.26-3.82-3.43zm18.48.02h-1.67l-.87 3.25H130l2.73-10.17h3.71a4.34 4.34 0 0 1 3.23 1 2.83 2.83 0 0 1 .79 2 3.35 3.35 0 0 1-.93 2.41 4.6 4.6 0 0 1-2.35 1.22l1.73 3.47h-2.54zm.86-2a2.89 2.89 0 0 0 2-.65 1.42 1.42 0 0 0 .42-1 1.06 1.06 0 0 0-.32-.81 2.08 2.08 0 0 0-1.48-.42h-1.87l-.78 2.92zm11.25-4.92h7.6l-.54 2h-5.38l-.55 2.08h4.72l-.54 2h-4.72l-.58 2.15h5.46l-.54 2h-7.66zm14.74 0h1.15v9.11h5.72v1.06h-6.87zm16.6-.07h1.08L184 42.67h-1.24L181.55 40H176l-1.21 2.69h-1.17zm2.83 6.51l-2.31-5.17-2.32 5.17zm8.34-6.44h4.33a3.74 3.74 0 0 1 2.66.9 2.26 2.26 0 0 1 .65 1.63 2.46 2.46 0 0 1-1.61 2.35c1.21.36 2.18 1.06 2.18 2.45 0 1.74-1.47 2.77-3.69 2.77h-4.52zm6.48 2.69c0-1-.8-1.66-2.25-1.66h-3.09V37h3c1.38 0 2.34-.62 2.34-1.82zM193.79 38h-3.21v3.59H194c1.54 0 2.5-.68 2.5-1.82-.01-1.08-.94-1.77-2.71-1.77zM37.72 49.05h4.84v1.24h-4.84z"/><path d="M37.67 65A27.38 27.38 0 1 1 57 57a27.2 27.2 0 0 1-19.33 8zm0-53.52a26.14 26.14 0 1 0 26.14 26.15 26.17 26.17 0 0 0-26.14-26.14z"/><path d="M31.79 24.8v25.49h1.24v-12.3h1.53v-1.24h-1.53V26.04h9.5v23.01h1.24V24.8z"/></g><path d="M197.53 0h10.17v10.21h-10.17zm0 64.97h10.17v10.21h-10.17zM0 64.97h10.17v10.21H0zM0 0h10.17v10.21H0z" fill="none"/></svg>