<svg viewBox="0 0 507.52 127.22" xmlns="http://www.w3.org/2000/svg"><path d="M127.26 6.84c3.57-3.57 5.64-5.65 10.1-5.65 5 0 8.32 3.87 8.32 9.51v68.61c0 3-2.38 6.25-5.94 6.25a6.1 6.1 0 0 1-6.24-6.25v-60.6L79.43 72.77c-1.78 1.79-4.14 3.27-6.22 3.27a9.51 9.51 0 0 1-6.54-3L12.26 18.71v60.6a6.1 6.1 0 0 1-6.24 6.25c-3.56 0-5.94-3.28-5.94-6.25V10.7c0-5.64 3.56-9.51 8.61-9.51 4.46 0 6.25 2.08 9.81 5.65l54.36 54.35z" fill="#d8343c"/><path d="M277.59 84.66a12.88 12.88 0 0 1-8.61-3.28 11.57 11.57 0 0 1-3.27-8.6v-60.6c0-3.57.89-6.24 3.27-8.62a11.9 11.9 0 0 1 8.61-3.55h78.74a6.14 6.14 0 0 1 5.93 5.93 6.22 6.22 0 0 1-5.93 6.24h-72.49c-3.57 0-6.25 2.38-6.25 5.94v48.43c0 3.86 2.38 6.23 6.25 6.23h74.26c3.57 0 5.94-2.68 5.94-6.23V54.37a5.77 5.77 0 0 0-5.94-6h-50.2a6.09 6.09 0 0 1 0-12.17h56.14a12.15 12.15 0 0 1 12.22 12.22v24.35a11.83 11.83 0 0 1-3.57 8.6 12.88 12.88 0 0 1-8.61 3.28z" fill="#67aa44"/><path d="M388.4 78.77V5.94c0-3.55 3.27-5.94 6.24-5.94a6.15 6.15 0 0 1 5.94 5.94v72.83a6 6 0 0 1-5.94 5.94 5.86 5.86 0 0 1-6.24-5.94" fill="#faa71b"/><path d="M424.95 84.66a11.71 11.71 0 0 1-12.19-11.89v-60.6A12.16 12.16 0 0 1 424.95 0h76.64a6.09 6.09 0 0 1 5.93 5.93 6 6 0 0 1-1.78 4.45 5.84 5.84 0 0 1-4.15 1.79h-70.7a6 6 0 0 0-4.45 1.78 7.09 7.09 0 0 0-1.48 4.15v48.43a7.3 7.3 0 0 0 1.48 4.44 6 6 0 0 0 4.45 1.79h70.7a6.09 6.09 0 0 1 5.93 5.94 6 6 0 0 1-1.78 4.45 7.11 7.11 0 0 1-4.15 1.48z" fill="#f47b43"/><path d="M237.4 72.48h-62.51c-3.55 0-5.13-2.37-5.13-5.93s1.58-6 5.13-6h62.51c3.57 0 5.44 2.38 5.44 6s-1.87 5.93-5.44 5.93m4.55-48.41h-54.07a6 6 0 0 0-5.94 6.24 5.77 5.77 0 0 0 5.94 5.94h49.52c3.87 0 5.15 2.38 5.15 6.24s-1.57 6.23-5.15 5.94h-67.34c-6.54 0-12.47 5.34-12.19 12.18v12.16a12 12 0 0 0 12.19 11.88h69.2c14.26 0 14.26-11.29 14.26-11.88V36.25c0-6.54-5-12.18-11.58-12.18" fill="#00abc7"/><path d="M0 104.41h4.06l4.48 13.9 4.51-13.9h4.01v17.37h-2.41v-14.41h-.38l-4.46 13.75H7.24l-4.45-13.75h-.37v14.41H0zm30.14 14.66c.07.72.49 1 1.27 1.13l-.15 1.81a4.42 4.42 0 0 1-3.17-.92 11.71 11.71 0 0 1-4.22 1c-2.37 0-3.62-1.38-3.62-3.93s1.36-3.52 4-3.73l3.5-.32v-.94c0-1.39-.65-2-2-2-1.72 0-4.69.3-4.69.3l-.11-1.8a32.58 32.58 0 0 1 5-.61c2.74 0 4.09 1.31 4.09 4.12zm-5.59-3c-1.29.13-1.87.73-1.87 2s.53 2 1.69 2a14.05 14.05 0 0 0 3.41-.63v-3.67zm9.61-12.1h2.38v17.81h-2.38zm15.36 15.1c0 .72.46 1 1.25 1.13l-.1 1.82a4.36 4.36 0 0 1-3.17-.92 11.86 11.86 0 0 1-4.24 1c-2.37 0-3.62-1.38-3.62-3.93s1.38-3.52 4-3.73l3.5-.32v-.94a1.74 1.74 0 0 0-2-2c-1.72 0-4.68.3-4.68.3l-.13-1.8a32.74 32.74 0 0 1 5.07-.61c2.72 0 4.1 1.31 4.1 4.12zm-5.62-3c-1.29.13-1.86.73-1.86 2s.53 2 1.68 2a14.14 14.14 0 0 0 3.42-.63v-3.67zm10.5-6.78l2.82 10.21h.77l2.84-10.21h2.35l-4.93 17.93h-2.32l1.48-5.45h-1.96l-3.4-12.48zm19.75 2.25a44.1 44.1 0 0 0-4.43-.4c-1.5 0-2.4.38-2.4 1.59 0 1 .58 1.23 2.85 1.61 3.3.52 4.42 1.26 4.42 3.72 0 2.93-1.87 4-4.92 4a33.37 33.37 0 0 1-4.53-.52l.1-2s3 .39 4.23.39c1.91 0 2.76-.39 2.76-1.76 0-1-.52-1.28-2.76-1.64-3.11-.53-4.51-1.15-4.51-3.7 0-2.79 2.24-3.78 4.62-3.78a31.63 31.63 0 0 1 4.62.53zm3.66-7.3h2.37v2.63h-2.37zm0 5.05h2.37v12.48h-2.37zm15.3 9.78c0 .72.48 1 1.24 1.13l-.09 1.82a4.41 4.41 0 0 1-3.18-.92 11.63 11.63 0 0 1-4.21 1c-2.38 0-3.64-1.38-3.64-3.93s1.38-3.52 4-3.73l3.49-.32v-.94c0-1.39-.65-2-2-2-1.73 0-4.71.3-4.71.3l-.09-1.8a32.6 32.6 0 0 1 5.06-.61c2.71 0 4.09 1.31 4.09 4.12zm-5.6-3c-1.3.13-1.86.73-1.86 2s.52 2 1.66 2a14 14 0 0 0 3.42-.63v-3.67zm9.68 5.7V109.3h2.37v.8a8.62 8.62 0 0 1 3.58-1.08c3.49 0 4.3 1.88 4.3 6.23v6.52h-2.35v-6.59c0-2.82-.35-4-2.42-4a8 8 0 0 0-3.11.76v9.83zm26.85-8.95h4.81v8.62a44.43 44.43 0 0 1-5.66.6c-5.3 0-6.8-3.26-6.8-8.95 0-5.9 1.57-9 6.72-9a31 31 0 0 1 5.75.71l-.09 2.12a45.36 45.36 0 0 0-5.32-.44c-3.66 0-4.56 1.89-4.56 6.57s.78 6.6 4.49 6.6a25.31 25.31 0 0 0 3.09-.29v-4.43h-2.42zm8.18-8.85h2.38v17.81h-2.38zm16.4 11.45c0 4.2-1.2 6.63-5.45 6.63s-5.49-2.33-5.49-6.63 1.39-6.4 5.49-6.4 5.45 2.28 5.45 6.4m-2.39 0c0-3-.83-4.27-3.06-4.27-2.39 0-3.1 1.2-3.1 4.27s.52 4.47 3.1 4.47 3.06-1.5 3.06-4.47m15.62-.08c0 5.07-1.51 6.7-6 6.7-1.41 0-4.39-.29-4.39-.29v-17.78h2.34v5.8a10.43 10.43 0 0 1 3.35-.75c3.41 0 4.72 1.73 4.72 6.32m-2.42 0c0-3-.7-4.14-2.57-4.14a12.35 12.35 0 0 0-3.08.52v8s1.48.12 2 .12c3 0 3.6-1.35 3.6-4.54m14.6 3.77c0 .72.47 1 1.24 1.13l-.09 1.82a4.4 4.4 0 0 1-3.17-.92 11.73 11.73 0 0 1-4.23 1c-2.35 0-3.62-1.38-3.62-3.93s1.38-3.52 4-3.73l3.51-.32v-.94c0-1.39-.65-2-2-2-1.73 0-4.68.3-4.68.3l-.12-1.8a32.47 32.47 0 0 1 5.06-.61c2.73 0 4.1 1.31 4.1 4.12zm-5.6-3c-1.3.13-1.87.73-1.87 2s.51 2 1.67 2a14.23 14.23 0 0 0 3.43-.63v-3.67zm9.61-12.1h2.37v17.81h-2.37zm12.2.44h2.43v17.37h-2.43zm6.44 17.36V109.3H199v.8a8.7 8.7 0 0 1 3.6-1.08c3.48 0 4.3 1.88 4.3 6.23v6.52h-2.36v-6.59c0-2.82-.34-4-2.41-4a8.1 8.1 0 0 0-3.13.76v9.83zm14.13 0V109.3h2.36v.8a8.71 8.71 0 0 1 3.6-1.08c3.46 0 4.29 1.88 4.29 6.23v6.52h-2.37v-6.59c0-2.82-.33-4-2.41-4a8 8 0 0 0-3.11.76v9.83zm24.2-6.35c0 4.2-1.19 6.63-5.44 6.63s-5.5-2.33-5.5-6.63 1.41-6.4 5.5-6.4c3.94 0 5.44 2.28 5.44 6.4m-2.39 0c0-3-.83-4.27-3-4.27-2.4 0-3.1 1.2-3.1 4.27s.52 4.47 3.1 4.47 3-1.5 3-4.47m6.42-6.13l2.72 10.5h.81l2.74-10.5h2.42l-3.37 12.48h-4.4l-3.36-12.48zm20.16 9.78c.06.72.46 1 1.24 1.13l-.08 1.82a4.43 4.43 0 0 1-3.19-.92 11.64 11.64 0 0 1-4.22 1c-2.38 0-3.63-1.38-3.63-3.93s1.37-3.52 4-3.73l3.48-.32v-.94c0-1.39-.65-2-2-2-1.73 0-4.7.3-4.7.3l-.1-1.8a32.37 32.37 0 0 1 5-.61c2.73 0 4.11 1.31 4.11 4.12zm-5.61-3c-1.29.13-1.86.73-1.86 2s.52 2 1.67 2a13.93 13.93 0 0 0 3.42-.63v-3.67zm12.28-4.64v5.45c0 2.25.12 2.94 1.55 2.94.7 0 2.12-.12 2.12-.12l.14 2a20 20 0 0 1-2.56.3c-2.71 0-3.59-1-3.59-4.62v-6h-1.66v-2.14h1.66v-3.74h2.35v3.74h3.66v2.14zm6.25-7.19h2.39v2.63h-2.39zm0 5.05h2.39v12.48h-2.39zm16.35 6.13c0 4.2-1.19 6.63-5.45 6.63s-5.49-2.33-5.49-6.63 1.4-6.4 5.49-6.4 5.45 2.28 5.45 6.4m-2.38 0c0-3-.83-4.27-3.06-4.27-2.4 0-3.1 1.2-3.1 4.27s.53 4.47 3.1 4.47 3.06-1.5 3.06-4.47m5.53 6.35V109.3h2.35v.8a8.78 8.78 0 0 1 3.59-1.08c3.48 0 4.31 1.88 4.31 6.23v6.52h-2.37v-6.59c0-2.82-.33-4-2.41-4a8.09 8.09 0 0 0-3.13.76v9.83zm49.67-.32a29.75 29.75 0 0 1-4.84.59c-5.21 0-6.38-3.11-6.38-8.92 0-6.08 1.37-9 6.38-9a24.2 24.2 0 0 1 4.84.65l-.09 2.17a39.78 39.78 0 0 0-4.44-.42c-3.45 0-4.17 1.89-4.17 6.59s.63 6.54 4.23 6.54a43.16 43.16 0 0 0 4.38-.42zm3-12.15h2.36v1.47a11.33 11.33 0 0 1 4.06-1.78v2.49a14.13 14.13 0 0 0-4.06 1.54v8.75h-2.36zm18 10.35v1.87a33.28 33.28 0 0 1-5 .53c-3.76 0-5.11-2.11-5.11-6.44 0-4.65 2-6.59 5.33-6.59s5.17 1.78 5.17 5.77l-.16 1.73h-7.83c0 2.25.8 3.36 3 3.36 1.92 0 4.6-.23 4.6-.23m-1.89-5c0-2.6-.82-3.54-2.82-3.54s-2.93 1-3 3.54zm14.47 4.42c0 .72.46 1 1.24 1.13l-.1 1.82a4.37 4.37 0 0 1-3.17-.92 11.75 11.75 0 0 1-4.23 1c-2.37 0-3.64-1.38-3.64-3.93s1.38-3.52 4-3.73l3.49-.32v-.94c0-1.39-.65-2-2-2-1.72 0-4.69.3-4.69.3l-.12-1.8a32.74 32.74 0 0 1 5.06-.61c2.72 0 4.1 1.31 4.1 4.12zm-5.6-3c-1.31.13-1.88.73-1.88 2s.53 2 1.67 2a14 14 0 0 0 3.42-.63v-3.67zm12.27-4.64v5.45c0 2.25.12 2.94 1.54 2.94.7 0 2.12-.12 2.12-.12l.13 2a19.81 19.81 0 0 1-2.55.3c-2.73 0-3.6-1-3.6-4.62v-6h-1.67v-2.14h1.67v-3.74h2.36v3.74h3.66v2.14zm6.25-7.19h2.38v2.63h-2.38zm0 5.05h2.38v12.48h-2.38zm7.21 0l2.69 10.5h.83l2.72-10.5h2.42l-3.37 12.48h-4.4l-3.35-12.48zm11.02-5.05h2.36v2.63h-2.36zm0 5.05h2.36v12.48h-2.36zm8.87 2.14v5.45c0 2.25.11 2.94 1.54 2.94.71 0 2.12-.12 2.12-.12l.14 2a20.24 20.24 0 0 1-2.56.3c-2.72 0-3.59-1-3.59-4.62v-6h-1.69v-2.14h1.69v-3.74h2.35v3.74h3.66v2.14zm7.18-2.14l2.84 10.21h.73l2.85-10.21h2.35l-4.92 17.93h-2.31l1.46-5.45h-1.96l-3.38-12.48zm27.52 12.16a29.75 29.75 0 0 1-4.84.59c-5.21 0-6.4-3.11-6.4-8.92 0-6.08 1.39-9 6.4-9a24.2 24.2 0 0 1 4.84.63l-.09 2.17a39.88 39.88 0 0 0-4.45-.42c-3.46 0-4.17 1.89-4.17 6.59s.64 6.54 4.24 6.54a42.94 42.94 0 0 0 4.38-.42zm12.12-1.8v1.87a33.37 33.37 0 0 1-5 .53c-3.75 0-5.09-2.11-5.09-6.44 0-4.65 2-6.59 5.3-6.59 3.46 0 5.19 1.78 5.19 5.77l-.17 1.73h-7.85c0 2.25.8 3.36 3 3.36 1.91 0 4.6-.23 4.6-.23m-1.88-5c0-2.6-.83-3.54-2.84-3.54s-2.9 1-2.94 3.54zm5.48 7.12V109.3h2.35v.8a8.7 8.7 0 0 1 3.59-1.08c3.48 0 4.31 1.88 4.31 6.23v6.52h-2.38v-6.59c0-2.82-.32-4-2.39-4a8 8 0 0 0-3.13.76v9.83zm16.67-10.34v5.45c0 2.25.13 2.94 1.56 2.94.7 0 2.12-.12 2.12-.12l.13 2a20 20 0 0 1-2.56.3c-2.73 0-3.61-1-3.61-4.62v-6h-1.66v-2.14h1.66v-3.74h2.36v3.74h3.68v2.14zm6.41-2.13h2.34v1.47a11.44 11.44 0 0 1 4.08-1.78v2.49a14.28 14.28 0 0 0-4.08 1.54v8.75h-2.34zm18.05 10.35v1.87a33.1 33.1 0 0 1-5 .53c-3.75 0-5.09-2.11-5.09-6.44 0-4.65 2-6.59 5.32-6.59s5.17 1.78 5.17 5.77l-.15 1.73h-8c0 2.25.79 3.36 3 3.36 1.93 0 4.6-.23 4.6-.23m-1.87-5c0-2.6-.81-3.54-2.82-3.54s-2.93 1-3 3.54zm-183.11 7.12c-.48-.49-.94-1-1.59-1.67a7 7 0 0 1-5 1.94c-3.31 0-5.23-2.22-5.23-4.78 0-2.32 1.38-3.91 3.34-5v-.07a5.8 5.8 0 0 1-1.42-3.56 4.14 4.14 0 0 1 4.32-4.2 3.55 3.55 0 0 1 3.78 3.62c0 1.81-1 3.21-3.74 4.56v.08c1.44 1.67 3.05 3.53 4.14 4.74a12.52 12.52 0 0 0 1.65-5h2a12.88 12.88 0 0 1-2.45 6.29c.91 1 1.8 1.92 2.81 3zm-2.67-2.93c-1-1.12-2.91-3.19-4.81-5.37a4.2 4.2 0 0 0-2.2 3.46 3.36 3.36 0 0 0 3.49 3.44 4.8 4.8 0 0 0 3.52-1.53m-5.19-10.4a4.75 4.75 0 0 0 1.29 3.06c1.72-1 2.82-1.89 2.82-3.34a2 2 0 0 0-2-2.2 2.22 2.22 0 0 0-2.15 2.47" fill="#595a5c"/></svg>