<svg id="Layer_1" data-name="Layer 1" xmlns="http://www.w3.org/2000/svg" viewBox="0 0 637.52 456.97"><defs><style>.cls-1{fill:#66a6ff;}.cls-2{fill:#0f0f0f;}.cls-3{fill:#474747;}.cls-4{fill:#46cc66;}.cls-5{fill:#4ca4e0;}.cls-6{fill:#dbcc46;}.cls-16,.cls-7{fill:#fff;}.cls-8{fill:#3498db;}.cls-9{fill:#f9b32f;}.cls-10{fill:#1ebc61;}.cls-11{fill:#ffc29b;}.cls-12{fill:#ea4c88;}.cls-13{fill:#303030;}.cls-14{fill:#ff8c7c;}.cls-15,.cls-17,.cls-28,.cls-30{fill:none;}.cls-15,.cls-16,.cls-17{stroke:#fff;}.cls-15,.cls-16,.cls-17,.cls-28{stroke-miterlimit:10;}.cls-15,.cls-16,.cls-28{stroke-width:0.36px;}.cls-17{stroke-width:0.72px;}.cls-18{fill:#ca2c68;}.cls-19{fill:#39d5ff;}.cls-20{fill:#9e6c4b;}.cls-21{fill:#7f8c8d;}.cls-22{fill:#ffb28b;}.cls-23{fill:#a3320b;}.cls-24{fill:#f1c40f;}.cls-25{fill:#c4a10e;}.cls-26{fill:#f75c4c;}.cls-27{fill:#8a0028;}.cls-28{stroke:#8a0028;}.cls-29{fill:#9a0038;}.cls-30{stroke:#0f0f0f;stroke-linecap:round;stroke-linejoin:round;stroke-width:3.52px;}</style></defs><title>team</title><path class="cls-1" d="M83.76,224.33c-29.82,86.31-51.85,150.06-21,193,48,66.81,189.6,35.27,321,6,124.35-27.7,202.84-45.18,222-103,26.81-80.9-83.21-178.39-120-211C439.13,68,331.94-27,229.76,7.33,149.42,34.32,117.76,125.93,83.76,224.33Z"/><rect class="cls-2" x="50.6" y="148.03" width="250.32" height="156.3" rx="8.02" ry="8.02"/><rect class="cls-3" x="54.44" y="151.7" width="242.64" height="148.96" rx="6.13" ry="6.13"/><rect class="cls-4" x="73.63" y="174.74" width="190.42" height="6.14" rx="3.07" ry="3.07"/><rect class="cls-4" x="73.63" y="224.65" width="144.35" height="6.14" rx="3.07" ry="3.07"/><rect class="cls-5" x="73.63" y="191.37" width="73.71" height="6.14" rx="3.07" ry="3.07"/><rect class="cls-6" x="73.63" y="208.01" width="116.71" height="6.14" rx="3.07" ry="3.07"/><rect class="cls-6" x="73.63" y="257.92" width="75.25" height="6.14" rx="3.07" ry="3.07"/><rect class="cls-6" x="73.63" y="274.56" width="95.21" height="6.14" rx="3.07" ry="3.07"/><rect class="cls-5" x="73.63" y="241.28" width="67.57" height="6.14" rx="3.07" ry="3.07"/><rect class="cls-2" x="342.6" y="146.03" width="250.32" height="156.3" rx="8.02" ry="8.02"/><rect class="cls-7" x="346.44" y="149.7" width="242.64" height="148.96" rx="6.13" ry="6.13"/><path class="cls-8" d="M514,243a1.38,1.38,0,0,1,.54.43.87.87,0,0,1,.18.53.84.84,0,0,1-.2.51,1.18,1.18,0,0,1-.6.36,1.76,1.76,0,0,1-.43.05h-2l-1.87,0-.57,0a.73.73,0,0,1-.51-.2.9.9,0,0,1-.27-.47,3.38,3.38,0,0,1-.11-.67c0-.23,0-.46,0-.7s0-.42,0-.58c0-.31,0-.67,0-1.07s0-.81,0-1.23,0-.83,0-1.23v-1.07q0-.82,0-1.32a5.41,5.41,0,0,1,.07-.79.83.83,0,0,1,.18-.42,1,1,0,0,1,.34-.22.83.83,0,0,1,.41-.05,1.15,1.15,0,0,1,.42.12.94.94,0,0,1,.32.28.65.65,0,0,1,.13.39q0,1.86,0,3.68t0,3.65l1.94,0,2-.05Z"/><path class="cls-8" d="M521.33,242.6a1,1,0,0,1,.49.15,1.19,1.19,0,0,1,.34.32.86.86,0,0,1,.15.43.92.92,0,0,1-.29.74.63.63,0,0,1-.27.18,9.25,9.25,0,0,1-2,.36,11.93,11.93,0,0,1-2.07,0l-.64-.06a1.31,1.31,0,0,1-.61-.2,1,1,0,0,1-.48-.88V237a1,1,0,0,1-.28-.31,1,1,0,0,1-.13-.39.82.82,0,0,1,.05-.4.78.78,0,0,1,.26-.33,1.67,1.67,0,0,1,.71-.33l.79-.15a10.62,10.62,0,0,1,1.61-.12l1.64,0a5,5,0,0,0,.57,0,1.22,1.22,0,0,1,.57.05,1,1,0,0,1,.46.34,1,1,0,0,1,.2.5.86.86,0,0,1-.1.51.89.89,0,0,1-.46.39,2,2,0,0,1-.83.14l-.84,0-1.18,0a11.33,11.33,0,0,0-1.18.09v2.15a10.08,10.08,0,0,0,1.11,0L520,239l.5,0a2.13,2.13,0,0,1,.51,0,.78.78,0,0,1,.53.28,1,1,0,0,1,.22.52,1,1,0,0,1-.1.56.82.82,0,0,1-.45.4,2.77,2.77,0,0,1-.71.16c-.3,0-.61.06-.94.08l-1,0h-.8v1.9a7.94,7.94,0,0,0,1.72,0,10.5,10.5,0,0,0,1.7-.29Z"/><path class="cls-8" d="M531.87,244.07a1.19,1.19,0,0,1-.23.58,1,1,0,0,1-.43.33.81.81,0,0,1-.51,0,1.1,1.1,0,0,1-.73-.91,4.64,4.64,0,0,0-.08-.59,13.25,13.25,0,0,0-.45-1.75l-1.9,0-1.89,0q-.14.4-.24.82l-.19.82q-.08.31-.14.64a1.19,1.19,0,0,1-.28.58.9.9,0,0,1-.56.35.84.84,0,0,1-.54-.1,1,1,0,0,1-.39-.42,1.12,1.12,0,0,1-.1-.66,5,5,0,0,1,.19-.94q.14-.46.26-.93a34.12,34.12,0,0,1,1.79-5.15c.06-.14.13-.28.19-.42l.19-.4q.11-.22.22-.46a2.65,2.65,0,0,1,.25-.46,1.55,1.55,0,0,1,.35-.36.82.82,0,0,1,.5-.15.91.91,0,0,1,.65.25,9.47,9.47,0,0,1,1.73,2.38,29.46,29.46,0,0,1,1.22,2.7,6.24,6.24,0,0,1,.63,0,.81.81,0,0,1,.56.28.84.84,0,0,1,.26.46,1,1,0,0,1,0,.48,1,1,0,0,1-.28.4,1,1,0,0,1-.47.23q.15.54.27,1.11t.19,1.14Zm-3.16-4.21q-.29-.7-.63-1.38a10.46,10.46,0,0,0-.75-1.31q-.31.68-.58,1.35t-.5,1.37l1.28,0Z"/><path class="cls-8" d="M535,244.13a1,1,0,0,1-.33.63,1.31,1.31,0,0,1-.6.32.86.86,0,0,1-.6-.07.59.59,0,0,1-.29-.56q-.08-1.78-.08-3.69V237a.75.75,0,0,1-.37-.28.9.9,0,0,1-.15-.41,1.08,1.08,0,0,1,.05-.46,1.11,1.11,0,0,1,.23-.4,1.69,1.69,0,0,1,.46-.34,5.94,5.94,0,0,1,.64-.29c.23-.09.46-.16.69-.22l.57-.14a4.76,4.76,0,0,1,2,0,4.52,4.52,0,0,1,1.74.75,3.32,3.32,0,0,1,1.12,1.41,3,3,0,0,1,.08,2,5,5,0,0,1-.23.62,3.5,3.5,0,0,1-.32.57,3.43,3.43,0,0,1-.62.71,6.34,6.34,0,0,1-.77.57,8.23,8.23,0,0,1,.56.65,4.25,4.25,0,0,0,.59.62l.36.34c.16.16.31.32.46.5a5.66,5.66,0,0,1,.39.52.7.7,0,0,1,.15.42,1.15,1.15,0,0,1-.52.91.84.84,0,0,1-.46.13.87.87,0,0,1-.5-.17,3.48,3.48,0,0,1-.53-.51l-.48-.54q-.51-.56-1-1.12t-1-1.11a5.16,5.16,0,0,1-.63.08l-.63.05v2.3Zm2.77-7.49a3,3,0,0,0-1.35-.42,3.47,3.47,0,0,0-1.42.2v3.5a10.75,10.75,0,0,0,1.37-.18,2.91,2.91,0,0,0,1.25-.58,2.08,2.08,0,0,0,.5-.58,1.73,1.73,0,0,0,.23-.68,1.42,1.42,0,0,0-.09-.68A1.3,1.3,0,0,0,537.78,236.64Z"/><path class="cls-8" d="M548.29,235.34a1.16,1.16,0,0,1,.3-.51,1,1,0,0,1,.46-.26.85.85,0,0,1,.5,0,.91.91,0,0,1,.44.37,1.1,1.1,0,0,1,.12.19.45.45,0,0,1,.05.2q0,2.21,0,4.42t-.18,4.42a.72.72,0,0,1-.22.56,1.05,1.05,0,0,1-.51.25,1,1,0,0,1-.58-.06.8.8,0,0,1-.43-.39l0,0v0q-1-1.66-2.12-3.18t-2.32-3V243c0,.32,0,.58,0,.78s0,.36,0,.47a1.34,1.34,0,0,1-.07.29.81.81,0,0,1-.42.5.94.94,0,0,1-.58.06.92.92,0,0,1-.51-.31.91.91,0,0,1-.22-.62v-4.32q0-.65,0-1.21t0-1q0-.53,0-1t0-1a.76.76,0,0,1,.13-.45.89.89,0,0,1,.33-.29,1.14,1.14,0,0,1,.88-.05,1,1,0,0,1,.38.26q.19.19.38.42c.12.15.24.3.35.45l.27.36.93,1.14,1,1.21q.45.59.87,1.18t.83,1.18q0-1.41.06-2.8t0-2.8Z"/><path class="cls-8" d="M555.61,242.89a1.05,1.05,0,0,1,.67.24,1,1,0,0,1,.34.52.83.83,0,0,1-.56,1,2.33,2.33,0,0,1-.66.14,7.56,7.56,0,0,1-.76,0l-.7,0-.5,0h-.91a.89.89,0,0,1-.56-.18,1,1,0,0,1-.33-.42.91.91,0,0,1,0-.53,1,1,0,0,1,.29-.51.89.89,0,0,1,.57-.25,4.13,4.13,0,0,1,.71,0v-6.13h-.67a1.12,1.12,0,0,1-.62-.22.83.83,0,0,1-.31-.39.77.77,0,0,1,0-.45,1.13,1.13,0,0,1,.21-.43.92.92,0,0,1,.39-.29,1.14,1.14,0,0,1,.45-.09h3.19a.26.26,0,0,1,.15,0l.15.08a1,1,0,0,1,.48.57.83.83,0,0,1-.09.73.81.81,0,0,1-.27.29,1.08,1.08,0,0,1-.36.14,2,2,0,0,1-.39,0h-.39v6.16h.22l.22,0Z"/><path class="cls-8" d="M564.31,235.34a1.16,1.16,0,0,1,.3-.51,1,1,0,0,1,.46-.26.85.85,0,0,1,.5,0,.91.91,0,0,1,.44.37,1.1,1.1,0,0,1,.12.19.45.45,0,0,1,.05.2q0,2.21,0,4.42t-.18,4.42a.72.72,0,0,1-.22.56,1.05,1.05,0,0,1-.51.25,1,1,0,0,1-.58-.06.8.8,0,0,1-.43-.39l0,0v0q-1-1.66-2.12-3.18t-2.32-3V243c0,.32,0,.58,0,.78s0,.36,0,.47a1.34,1.34,0,0,1-.07.29.81.81,0,0,1-.42.5.94.94,0,0,1-.58.06.92.92,0,0,1-.51-.31.91.91,0,0,1-.22-.62v-4.32q0-.65,0-1.21t0-1q0-.53,0-1t0-1a.76.76,0,0,1,.13-.45.89.89,0,0,1,.33-.29,1.14,1.14,0,0,1,.88-.05,1,1,0,0,1,.38.26q.19.19.38.42c.12.15.24.3.35.45l.27.36.93,1.14,1,1.21q.45.59.87,1.18t.83,1.18q0-1.41.06-2.8t0-2.8Z"/><path class="cls-8" d="M575.23,239a1.26,1.26,0,0,1,.53.3,1,1,0,0,1,.29.46.79.79,0,0,1,0,.51,1,1,0,0,1-.43.46,1.09,1.09,0,0,0,0,.38c0,.22,0,.48,0,.77s0,.58,0,.87a2.17,2.17,0,0,1-.14.69,1.5,1.5,0,0,1-.26.36,4.21,4.21,0,0,1-.32.29,4.4,4.4,0,0,1-2.55,1,4.15,4.15,0,0,1-1.37-.14,4.78,4.78,0,0,1-1.32-.59,4.6,4.6,0,0,1-1.35-1.31,5.62,5.62,0,0,1-.8-1.73,5.54,5.54,0,0,1-.18-1.23,5.47,5.47,0,0,1,.1-1.27,4.88,4.88,0,0,1,.4-1.2,4.35,4.35,0,0,1,1.83-1.93,10.63,10.63,0,0,1,1.32-.62,5.69,5.69,0,0,1,1.08-.33,4.59,4.59,0,0,1,1.13-.08,6.15,6.15,0,0,1,.94.15,2.07,2.07,0,0,1,.86.41,1.23,1.23,0,0,1,.29.34,1,1,0,0,1,.14.41.82.82,0,0,1-.05.4.91.91,0,0,1-.7.53,1.37,1.37,0,0,1-.46,0,3.22,3.22,0,0,1-.46-.15l-.43-.16a1,1,0,0,0-.36-.05l-.38,0a10.66,10.66,0,0,0-1.09.38,5.15,5.15,0,0,0-1,.55,3.46,3.46,0,0,0-.8.77,2.34,2.34,0,0,0-.43,1.08,3.84,3.84,0,0,0,.08,1.57,3.15,3.15,0,0,0,.74,1.37,2.87,2.87,0,0,0,.83.63,2.67,2.67,0,0,0,1,.29,2.55,2.55,0,0,0,1-.11,2.14,2.14,0,0,0,.88-.54v-1.67l-.64.05q-.33,0-.67,0a3.4,3.4,0,0,1-.65,0,1.87,1.87,0,0,1-.6-.21.82.82,0,0,1-.36-.41.91.91,0,0,1-.05-.51,1.07,1.07,0,0,1,.22-.47.84.84,0,0,1,.46-.29,2.06,2.06,0,0,1,.35,0h1.06l1.2,0Z"/><circle class="cls-9" cx="539.76" cy="203.33" r="23"/><path class="cls-8" d="M539.76,203.33l-10.84,20.28a23,23,0,1,1,30.4-8.17Z"/><path class="cls-10" d="M539.76,203.33l-11.19,20.09a23,23,0,0,1-11.81-20.09q0-.3,0-.61Z"/><g id="Glasses_girl" data-name="Glasses girl"><path class="cls-9" d="M285.14,270.62c6.59-10.66,9-20,10.77-27.26,5-20.48,8-32.38,1.79-44.62-6.76-13.38-22.23-22.88-38.45-22.78-18,.11-32.55,11.93-39.08,23.91-11,20.22,5.49,32.31-2.39,64.13-5.35,21.6-15.26,28-10.9,35,6.82,11,39,7.62,59.16-7C276.5,284.41,282.73,274.53,285.14,270.62Z"/><path id="body" class="cls-11" d="M314.18,288.82c-5.35-2.84-19.85-7.24-27.92-9.68a15,15,0,0,1-4.81-2.37,16,16,0,0,1-6.22-12.4,30.3,30.3,0,0,1-29.23-.78,13.79,13.79,0,0,1-.54,4.69c-.66,2.1-1.79,3.35-3.75,5.49a32.64,32.64,0,0,1-5.27,4.66c-7,4.79-21,6.72-28,10.41-5.18,2.76-11.39,9.15-14.41,25.73a104.51,104.51,0,0,0,134.53,0C325.61,298.18,319.52,291.66,314.18,288.82Z"/><ellipse id="face" class="cls-11" cx="261.33" cy="227.49" rx="34.64" ry="40.26"/><path class="cls-12" d="M257.53,310.7c-21.74,0-41.93-4.2-58.67-11.4a55.28,55.28,0,0,0-4.8,15.27,104.5,104.5,0,0,0,134.53,0c-1.5-8.24-3.79-14-6.38-18C304.4,305.4,281.94,310.7,257.53,310.7Z"/><path class="cls-7" d="M240,309.78l3.81-38.39c-.79.93-1.68,1.91-2.66,2.89A49.08,49.08,0,0,1,237,278l-4.06,30.75c1.18.26,2.45.49,3.81.68C237.87,309.59,239,309.7,240,309.78Z"/><path class="cls-7" d="M280.37,309.07l-2.24-35.7a16.37,16.37,0,0,0,6.39,5.11l3.75,29.31c-1.2.29-2.49.55-3.87.78S281.63,309,280.37,309.07Z"/><ellipse id="eyes" class="cls-13" cx="245.15" cy="229.67" rx="3.55" ry="3.38"/><ellipse id="eyes-2" data-name="eyes" class="cls-13" cx="277.43" cy="229.67" rx="3.55" ry="3.38"/><path id="right_ear" data-name="right ear" class="cls-11" d="M232.51,227.25c0,3.2-2.08,7-4.89,7.18-3.14.18-5.2-4.34-5.54-5.07s-2.52-5.5,0-8.11a5.73,5.73,0,0,1,5.54-1.18C230.77,221,232.5,224.36,232.51,227.25Z"/><path id="left_ear" data-name="left ear" class="cls-11" d="M290.15,227.25c0,3.2,2.08,7,4.89,7.18,3.14.18,5.2-4.34,5.54-5.07s2.52-5.5,0-8.11a5.73,5.73,0,0,0-5.54-1.18C291.88,221,290.15,224.36,290.15,227.25Z"/><path id="mouth" class="cls-14" d="M248.59,249h25.21c-.19.72-4,8-11.94,8.39A13.71,13.71,0,0,1,248.59,249Z"/><path id="mouth-2" data-name="mouth" class="cls-7" d="M250.73,249.7h21.19c-.16,0-3.41,6.64-10,7A11.19,11.19,0,0,1,250.73,249.7Z"/><path class="cls-9" d="M297.44,206.1c-2.18-7.54-8.18-13.29-9.88-14.89-.28-.27-.63-.58-1.1-1A32.16,32.16,0,0,0,274,183.55a47.58,47.58,0,0,0-18.58-.88c-4.15.63-12.12,1.95-19.11,7.54-12.41,9.93-12.82,26.3-12.84,29.09A63.4,63.4,0,0,0,271,198.35,29.73,29.73,0,0,0,279.05,211a30.65,30.65,0,0,0,19.84,7.83,36.66,36.66,0,0,0,0-4.21c0-.45-.12-1.94-.44-3.92A40.66,40.66,0,0,0,297.44,206.1Z"/><g id="earphone"><ellipse class="cls-7" cx="226.33" cy="229.19" rx="2.1" ry="2.9"/><ellipse class="cls-7" cx="296.33" cy="229.19" rx="2.1" ry="2.9"/><path class="cls-7" d="M227.32,229.49h1.12a0,0,0,0,1,0,0V237a.56.56,0,0,1-.56.56h0a.56.56,0,0,1-.56-.56v-7.5A0,0,0,0,1,227.32,229.49Z"/><path class="cls-7" d="M294.23,229.49h1.12a0,0,0,0,1,0,0V237a.56.56,0,0,1-.56.56h0a.56.56,0,0,1-.56-.56v-7.5a0,0,0,0,1,0,0Z"/><path class="cls-15" d="M227.87,237.29c-.84,15.6,3.3,24.8,7.53,30.42,5.42,7.19,12.53,10.56,20.75,22.77a81.78,81.78,0,0,1,6,10.63"/><path class="cls-15" d="M294.8,237.35c1.83,14.31-1.44,22.92-4.64,28.08-5,8.12-11.83,10.77-20.69,23.3A89.07,89.07,0,0,0,262.2,301"/><path class="cls-16" d="M265.38,321.07a1.3,1.3,0,0,1-1.5-1.06l-2.1-12.41a1.3,1.3,0,0,1,2.56-.43l2.1,12.41A1.3,1.3,0,0,1,265.38,321.07Z"/><path class="cls-17" d="M262.22,300.68a13.86,13.86,0,0,0,.62,5.41"/><path class="cls-17" d="M265.38,321.07c.64,3.18,1.19,6.63,1.61,10.32.29,2.63.49,5.14.61,7.53"/></g><path id="glasses" class="cls-18" d="M285,221.8H270.86a5.79,5.79,0,0,0-5.83,5.77,11.18,11.18,0,0,0,.46,3.14,10.42,10.42,0,0,0-4.31-1h0a10.42,10.42,0,0,0-4.31,1,11.31,11.31,0,0,0,.46-3.17,5.75,5.75,0,0,0-5.83-5.73H237.35a4.46,4.46,0,0,0-4.53,4.49v1.23a12.11,12.11,0,0,0,12,12.16h.45a12.19,12.19,0,0,0,10.8-6.87,9.06,9.06,0,0,1,5.11-1.72h0a9.08,9.08,0,0,1,5.11,1.71,12.19,12.19,0,0,0,10.8,6.87h.45a12,12,0,0,0,11.81-12.16v-1.23A4.3,4.3,0,0,0,285,221.8Zm-39.74,16.46h-.45a10.68,10.68,0,0,1-10.56-10.73v-1.23a3,3,0,0,1,3.1-3.06h14.15a4.4,4.4,0,0,1,4.39,4.4A10.64,10.64,0,0,1,245.26,238.25Zm42.65-10.73a10.52,10.52,0,0,1-10.37,10.73h-.45a10.64,10.64,0,0,1-10.63-10.63,4.4,4.4,0,0,1,4.39-4.4H285a2.88,2.88,0,0,1,2.91,3.06Z"/></g><g id="Bald_dude" data-name="Bald dude"><path id="body-2" data-name="body" class="cls-11" d="M443.52,289.66c-5.35-2.84-19.85-7.24-27.92-9.68a15,15,0,0,1-4.81-2.37,16,16,0,0,1-6.22-12.4,30.3,30.3,0,0,1-29.23-.78,13.79,13.79,0,0,1-.54,4.69c-.66,2.1-1.79,3.35-3.75,5.49a32.64,32.64,0,0,1-5.27,4.66c-7,4.79-21,6.72-28,10.41-5.18,2.76-11.39,9.15-14.41,25.73a104.51,104.51,0,0,0,134.53,0C455,299,448.85,292.49,443.52,289.66Z"/><path id="right_ear-2" data-name="right ear" class="cls-11" d="M361.84,231c0,3.2-2.08,7-4.89,7.18-3.14.18-5.2-4.34-5.54-5.07s-2.52-5.5,0-8.11a5.73,5.73,0,0,1,5.54-1.18C360.11,224.66,361.83,228.06,361.84,231Z"/><path id="left_ear-2" data-name="left ear" class="cls-11" d="M419.48,231c0,3.2,2.08,7,4.89,7.18,3.14.18,5.2-4.34,5.54-5.07s2.52-5.5,0-8.11a5.73,5.73,0,0,0-5.54-1.18C421.22,224.66,419.49,228.06,419.48,231Z"/><path class="cls-8" d="M443.52,289.66c-5.35-2.84-19.85-7.24-27.92-9.68a15,15,0,0,1-4.81-2.37c-.34-.26-.66-.52-1-.8A43.5,43.5,0,0,1,390.9,281a42.65,42.65,0,0,1-21-5.23,31.87,31.87,0,0,1-4.18,3.53c-7,4.79-21,6.72-28,10.41-5.18,2.76-11.39,9.15-14.41,25.73a104.51,104.51,0,0,0,134.53,0C455,299,448.85,292.49,443.52,289.66Z"/><path class="cls-19" d="M411.91,278.36a43.17,43.17,0,0,1-43.92-.73l2-1.9a44.53,44.53,0,0,0,39.83,1.08Z"/><ellipse id="face-2" data-name="face" class="cls-11" cx="390.66" cy="228.33" rx="34.64" ry="40.26"/><path class="cls-20" d="M366.9,259.48a46.06,46.06,0,0,0,23.78,15,43.7,43.7,0,0,0,34-46.17,37.46,37.46,0,0,1-2.16,5.53c-2.23,4.6-5.72,11.81-11.18,13.2-7.62,1.95-15.15-8.45-19.25-5.54a3.81,3.81,0,0,0-1.36,2,3.78,3.78,0,0,0-1.39-1.85C385,238.84,377.89,249.55,370,248c-7.38-1.42-11.67-12.75-12.24-14.24a27.73,27.73,0,0,1-1.35-4.85A46.53,46.53,0,0,0,366.9,259.48Z"/><ellipse id="eyes-3" data-name="eyes" class="cls-13" cx="374.49" cy="227.64" rx="3.55" ry="3.38"/><ellipse id="eyes-4" data-name="eyes" class="cls-13" cx="406.76" cy="227.64" rx="3.55" ry="3.38"/><path id="mouth-3" data-name="mouth" class="cls-7" d="M380.07,252h21.19c-.16,0-3.41,6.64-10,7A11.19,11.19,0,0,1,380.07,252Z"/></g><ellipse id="face-3" data-name="face" class="cls-11" cx="327.6" cy="254.09" rx="34.64" ry="40.26"/><circle id="eyes-5" data-name="eyes" class="cls-13" cx="311.43" cy="257.16" r="3.55"/><circle id="eyes-6" data-name="eyes" class="cls-13" cx="343.7" cy="257.16" r="3.55"/><path id="mouth-4" data-name="mouth" class="cls-7" d="M316.29,277.73h22.18c-.17.72-3.56,7.39-10.5,7.77C323.17,285.75,318.62,282.74,316.29,277.73Z"/><path id="right_ear-3" data-name="right ear" class="cls-11" d="M298.78,258.86c0,3.2-2.08,7-4.89,7.18-3.14.18-5.2-4.34-5.54-5.07s-2.52-5.5,0-8.11a5.73,5.73,0,0,1,5.54-1.18C297,252.57,298.77,256,298.78,258.86Z"/><path id="left_ear-3" data-name="left ear" class="cls-11" d="M356.42,258.86c0,3.2,2.08,7,4.89,7.18,3.14.18,5.2-4.34,5.54-5.07s2.52-5.5,0-8.11a5.73,5.73,0,0,0-5.54-1.18C358.16,252.57,356.43,256,356.42,258.86Z"/><path id="glasses-2" data-name="glasses" d="M351.39,249.82H337.25a5.76,5.76,0,0,0-5.83,5.74,11.3,11.3,0,0,0,.46,3.16,10.43,10.43,0,0,0-4.31-1h0a10.44,10.44,0,0,0-4.31,1,11.19,11.19,0,0,0,.46-3.15,5.74,5.74,0,0,0-5.83-5.71H303.74a4.5,4.5,0,0,0-4.65,4.42v1.23a12.27,12.27,0,0,0,12.11,12.24h.45a12.19,12.19,0,0,0,10.8-6.87,9.06,9.06,0,0,1,5.11-1.72h0a9.08,9.08,0,0,1,5.11,1.71,12.19,12.19,0,0,0,10.8,6.87h.45c6.65,0,11.69-5.59,11.69-12.24v-1.23A4.15,4.15,0,0,0,351.39,249.82Zm-39.74,16.46h-.45a10.84,10.84,0,0,1-10.68-10.81v-1.23a3.07,3.07,0,0,1,3.22-3h14.15a4.4,4.4,0,0,1,4.39,4.4A10.64,10.64,0,0,1,311.65,266.28Zm42.53-10.81c0,5.86-4.4,10.81-10.26,10.81h-.45a10.64,10.64,0,0,1-10.63-10.63,4.4,4.4,0,0,1,4.39-4.4h14.15a2.73,2.73,0,0,1,2.8,3Z"/><path id="hair_1" data-name="hair 1" d="M298.11,224.37c8.63-10.77,22.38-10.75,29.56-10.74s20.59,0,29.19,10.56c9.29,11.37,5.79,26.18,5.29,28.17a38.26,38.26,0,0,0-3.06-9.18,7.85,7.85,0,0,0-1.91-2.52,8,8,0,0,0-3.67-1.69,17.16,17.16,0,0,0-7.59.23c-7.87,2.14-17.23,1.92-17.93,1.9-4.36-.12-10.18-.29-16.51-3-.66-.28-6-2.59-9.87-1.64a10.1,10.1,0,0,0-3.43,1.64,10.29,10.29,0,0,0-2,2.21c-2.35,3.56-3.14,11.29-3.19,11.81C292.49,250.05,289.11,235.6,298.11,224.37Z"/><path id="body-3" data-name="body" class="cls-11" d="M380.46,315.42c-5.35-2.84-19.85-7.24-27.92-9.68a15,15,0,0,1-4.81-2.37A16,16,0,0,1,341.5,291a30.3,30.3,0,0,1-29.23-.78,13.79,13.79,0,0,1-.54,4.69c-.66,2.1-1.79,3.35-3.75,5.49A32.64,32.64,0,0,1,302.7,305c-7,4.79-21,6.72-28,10.41-5.18,2.76-11.39,9.15-14.41,25.73l134.53,0C391.89,324.78,385.79,318.25,380.46,315.42Z"/><path id="shirt_1" data-name="shirt 1" class="cls-21" d="M352.54,305.74a15,15,0,0,1-4.81-2.37,16,16,0,0,1-4.94-6.38,16.16,16.16,0,0,1-31.69-.57c-.19.32-.35.56-.45.72a32.66,32.66,0,0,1-2.67,3.19h0A32.13,32.13,0,0,1,302.7,305c-7,4.79-21,6.73-28,10.42-5.18,2.76-11.39,9.16-14.41,25.74l134.53,0c-3-16.36-9.07-22.89-14.41-25.72S360.61,308.18,352.54,305.74Z"/><g id="Pink_hair_girl" data-name="Pink hair girl"><path id="body-4" data-name="body" class="cls-22" d="M510.31,315.42c-5.35-2.84-19.85-7.24-27.92-9.68a15,15,0,0,1-4.81-2.37,16,16,0,0,1-6.23-12.4,30.3,30.3,0,0,1-29.23-.78,13.79,13.79,0,0,1-.54,4.69c-.66,2.1-1.79,3.35-3.75,5.49a32.64,32.64,0,0,1-5.27,4.65c-7,4.79-21,6.72-28,10.41-5.18,2.76-11.39,9.15-14.41,25.73l134.53,0C521.74,324.78,515.64,318.25,510.31,315.42Z"/><ellipse class="cls-23" cx="457.36" cy="242.2" rx="41.81" ry="40.95"/><ellipse id="face-4" data-name="face" class="cls-22" cx="457.45" cy="254.6" rx="34.64" ry="40.77"/><path class="cls-10" d="M511,315.42A134.29,134.29,0,0,0,496,310l-8.87-2.73-3.71-1.15a124.33,124.33,0,0,1-18.41,9.5,108.45,108.45,0,0,1-18.46,5.82,116.44,116.44,0,0,1-22.7,2.44A123.58,123.58,0,0,1,398,321.5a43.94,43.94,0,0,0-7.76,19.65l135.2,0C521.87,321.91,514,316.9,511,315.42Z"/><ellipse id="eyes-7" data-name="eyes" class="cls-13" cx="442.71" cy="259.13" rx="3.55" ry="3.38"/><ellipse id="eyes-8" data-name="eyes" class="cls-13" cx="474.98" cy="259.13" rx="3.55" ry="3.38"/><path id="right_ear-4" data-name="right ear" class="cls-22" d="M428.63,256c0,3.2-2.08,7-4.89,7.18-3.14.18-5.2-4.34-5.54-5.07s-2.52-5.5,0-8.11a5.73,5.73,0,0,1,5.54-1.18C426.89,249.71,428.62,253.11,428.63,256Z"/><path id="left_ear-4" data-name="left ear" class="cls-22" d="M486.27,256c0,3.2,2.08,7,4.89,7.18,3.14.18,5.2-4.34,5.54-5.07s2.52-5.5,0-8.11a5.73,5.73,0,0,0-5.54-1.18C488,249.71,486.28,253.11,486.27,256Z"/><path id="mouth-5" data-name="mouth" class="cls-18" d="M444.71,277.73h25.21c-.19.72-4,8-11.94,8.39A13.71,13.71,0,0,1,444.71,277.73Z"/><path id="mouth-6" data-name="mouth" class="cls-7" d="M446.86,278.44h21.19c-.16,0-3.41,6.64-10,7A11.19,11.19,0,0,1,446.86,278.44Z"/><path class="cls-23" d="M489.94,238.41a109.58,109.58,0,0,1-64.93,0,32.92,32.92,0,0,1,64.93,0Z"/><ellipse class="cls-23" cx="457.47" cy="203.83" rx="16.06" ry="14.59"/><path class="cls-23" d="M407.72,335.07c-5.57-9.76-5.19-15.9-3.72-19.76,2.93-7.69,11.26-9,23.16-21.55a87.89,87.89,0,0,0,7.24-8.7,34.3,34.3,0,0,0,7.73,6.15,21.74,21.74,0,0,1-.5,9c-3.3,11.78-16.74,18.22-18.85,19.23-6.8,3.26-11.31,3.22-13.83,7.75A12.72,12.72,0,0,0,407.72,335.07Z"/></g><g id="Headphones_dude" data-name="Headphones dude"><path id="body-5" data-name="body" class="cls-11" d="M247.79,315.27c-5.35-2.84-19.85-7.24-27.92-9.68a15,15,0,0,1-4.81-2.37,16,16,0,0,1-6.22-12.4A30.3,30.3,0,0,1,179.6,290a13.79,13.79,0,0,1-.54,4.69c-.66,2.1-1.79,3.35-3.75,5.49a32.64,32.64,0,0,1-5.27,4.65c-7,4.79-21,6.72-28,10.41-5.18,2.76-11.39,9.15-14.41,25.73l134.53,0C259.22,324.63,253.12,318.1,247.79,315.27Z"/><ellipse id="face-5" data-name="face" class="cls-11" cx="194.93" cy="253.94" rx="34.64" ry="40.26"/><path class="cls-23" d="M229.57,238.17a124.4,124.4,0,0,1-69.28,0c2.93-15.92,17.85-27.6,35-27.45C212.13,210.87,226.69,222.47,229.57,238.17Z"/><path class="cls-24" d="M247.79,315.27c-5.35-2.84-19.85-7.24-27.92-9.68a15,15,0,0,1-4.81-2.37c-.34-.26-.66-.52-1-.8a43.5,43.5,0,0,1-18.93,4.16,42.65,42.65,0,0,1-21-5.23,31.87,31.87,0,0,1-4.18,3.53c-7,4.79-21,6.72-28,10.41-5.18,2.76-11.39,9.15-14.41,25.73l134.53,0C259.22,324.63,253.12,318.1,247.79,315.27Z"/><path class="cls-25" d="M215.53,302.75a1.45,1.45,0,0,1-.28,2.31,40.82,40.82,0,0,1-42.14-.8,1.45,1.45,0,0,1-.17-2.34l.17-.14a1.45,1.45,0,0,1,1.6-.18,44.54,44.54,0,0,0,39.21.89,1.45,1.45,0,0,1,1.61.26Z"/><ellipse id="eyes-9" data-name="eyes" class="cls-13" cx="178.76" cy="256.83" rx="3.55" ry="3.38"/><ellipse id="eyes-10" data-name="eyes" class="cls-13" cx="211.03" cy="256.83" rx="3.55" ry="3.38"/><path id="mouth-7" data-name="mouth" class="cls-7" d="M184.34,279h21.19c-.16,0-3.41,6.64-10,7A11.19,11.19,0,0,1,184.34,279Z"/><path class="cls-26" d="M159.56,247h0a0,0,0,0,1,0,0v25.69a0,0,0,0,1,0,0h0a10.74,10.74,0,0,1-10.74-10.74V257.7A10.74,10.74,0,0,1,159.56,247Z" transform="translate(-37.86 26.59) rotate(-8.78)"/><path class="cls-26" d="M239.64,246.58h0a0,0,0,0,1,0,0v26.14a0,0,0,0,1,0,0h0A10.74,10.74,0,0,1,228.9,262v-4.66a10.74,10.74,0,0,1,10.74-10.74Z" transform="translate(426.16 552.01) rotate(-171.22)"/><path class="cls-26" d="M155.28,247.8l-2.74,1.46c.63-22.67,19.19-40.86,41.3-41.14,22.87-.29,42.3,18.69,42.38,42.18l-2.19-2a39.72,39.72,0,0,0-78.74-.49Z"/><path class="cls-27" d="M159.92,274l-1.52.23-.45-2.6c.26,0,.54.08.84.1l.78,0Z"/><path class="cls-28" d="M159.12,273.79c.35,1.68.88,4.15,1.57,7.12,2.82,12.15,4.2,18.24,5.76,21.44,4.83,10,11.54,8.35,18.56,18.25a40.18,40.18,0,0,1,6.91,20.74"/><path class="cls-23" d="M232.85,241.54a4,4,0,0,1-2.64,4.36,106.54,106.54,0,0,1-71.25.16,4,4,0,0,1-2.65-4.37v-.08a4,4,0,0,1,5.11-3.32,117.69,117.69,0,0,0,66.17-.56,4,4,0,0,1,5.17,3.31Z"/><rect class="cls-29" x="159.49" y="245" width="2.72" height="27.68" rx="1.36" ry="1.36" transform="translate(-37.63 27.59) rotate(-8.78)"/><rect class="cls-29" x="226.25" y="244.69" width="2.72" height="28.04" rx="1.36" ry="1.36" transform="translate(413.05 549.14) rotate(-171.22)"/></g><line class="cls-30" x1="1.76" y1="343.33" x2="635.76" y2="343.33"/></svg>